<svg width="44" height="44" viewBox="0 0 44 44" fill="none" xmlns="http://www.w3.org/2000/svg">
<rect x="0.5" y="0.5" width="43" height="43" rx="21.5" fill="#FAFCFF"/>
<path d="M27 28C27.56 28 28 28.44 28 29C28 29.56 27.56 30 27 30C26.44 30 26 29.56 26 29C26 28.44 26.44 28 27 28ZM27 25C24.27 25 21.94 26.66 21 29C21.94 31.34 24.27 33 27 33C29.73 33 32.06 31.34 33 29C32.06 26.66 29.73 25 27 25ZM27 31.5C26.337 31.5 25.7011 31.2366 25.2322 30.7678C24.7634 30.2989 24.5 29.663 24.5 29C24.5 28.337 24.7634 27.7011 25.2322 27.2322C25.7011 26.7634 26.337 26.5 27 26.5C27.663 26.5 28.2989 26.7634 28.7678 27.2322C29.2366 27.7011 29.5 28.337 29.5 29C29.5 29.663 29.2366 30.2989 28.7678 30.7678C28.2989 31.2366 27.663 31.5 27 31.5ZM19.27 30H16V14H23V19H28V23.07C28.7 23.15 29.36 23.32 30 23.56V18L24 12H16C15.4696 12 14.9609 12.2107 14.5858 12.5858C14.2107 12.9609 14 13.4696 14 14V30C14 30.5304 14.2107 31.0391 14.5858 31.4142C14.9609 31.7893 15.4696 32 16 32H20.5C19.9956 31.3962 19.5813 30.7225 19.27 30Z" fill="#2F5E8D"/>
<rect x="0.5" y="0.5" width="43" height="43" rx="21.5" stroke="#CFE2F4"/>
</svg>
