<svg width="44" height="44" viewBox="0 0 44 44" fill="none" xmlns="http://www.w3.org/2000/svg">
<rect x="0.5" y="0.5" width="43" height="43" rx="21.5" fill="#FAFCFF"/>
<path d="M31.5625 14.5V18.25C31.5625 18.3992 31.5032 18.5423 31.3977 18.6477C31.2923 18.7532 31.1492 18.8125 31 18.8125C30.8508 18.8125 30.7077 18.7532 30.6023 18.6477C30.4968 18.5423 30.4375 18.3992 30.4375 18.25V15.0625H27.25C27.1008 15.0625 26.9577 15.0032 26.8523 14.8977C26.7468 14.7923 26.6875 14.6492 26.6875 14.5C26.6875 14.3508 26.7468 14.2077 26.8523 14.1023C26.9577 13.9968 27.1008 13.9375 27.25 13.9375H31C31.1492 13.9375 31.2923 13.9968 31.3977 14.1023C31.5032 14.2077 31.5625 14.3508 31.5625 14.5ZM16.75 28.9375H13.5625V25.75C13.5625 25.6008 13.5032 25.4577 13.3977 25.3523C13.2923 25.2468 13.1492 25.1875 13 25.1875C12.8508 25.1875 12.7077 25.2468 12.6023 25.3523C12.4968 25.4577 12.4375 25.6008 12.4375 25.75V29.5C12.4375 29.6492 12.4968 29.7923 12.6023 29.8977C12.7077 30.0032 12.8508 30.0625 13 30.0625H16.75C16.8992 30.0625 17.0423 30.0032 17.1477 29.8977C17.2532 29.7923 17.3125 29.6492 17.3125 29.5C17.3125 29.3508 17.2532 29.2077 17.1477 29.1023C17.0423 28.9968 16.8992 28.9375 16.75 28.9375ZM31 25.1875C30.8508 25.1875 30.7077 25.2468 30.6023 25.3523C30.4968 25.4577 30.4375 25.6008 30.4375 25.75V28.9375H27.25C27.1008 28.9375 26.9577 28.9968 26.8523 29.1023C26.7468 29.2077 26.6875 29.3508 26.6875 29.5C26.6875 29.6492 26.7468 29.7923 26.8523 29.8977C26.9577 30.0032 27.1008 30.0625 27.25 30.0625H31C31.1492 30.0625 31.2923 30.0032 31.3977 29.8977C31.5032 29.7923 31.5625 29.6492 31.5625 29.5V25.75C31.5625 25.6008 31.5032 25.4577 31.3977 25.3523C31.2923 25.2468 31.1492 25.1875 31 25.1875ZM13 18.8125C13.1492 18.8125 13.2923 18.7532 13.3977 18.6477C13.5032 18.5423 13.5625 18.3992 13.5625 18.25V15.0625H16.75C16.8992 15.0625 17.0423 15.0032 17.1477 14.8977C17.2532 14.7923 17.3125 14.6492 17.3125 14.5C17.3125 14.3508 17.2532 14.2077 17.1477 14.1023C17.0423 13.9968 16.8992 13.9375 16.75 13.9375H13C12.8508 13.9375 12.7077 13.9968 12.6023 14.1023C12.4968 14.2077 12.4375 14.3508 12.4375 14.5V18.25C12.4375 18.3992 12.4968 18.5423 12.6023 18.6477C12.7077 18.7532 12.8508 18.8125 13 18.8125ZM17.5 17.6875C17.3508 17.6875 17.2077 17.7468 17.1023 17.8523C16.9968 17.9577 16.9375 18.1008 16.9375 18.25V25.75C16.9375 25.8992 16.9968 26.0423 17.1023 26.1477C17.2077 26.2532 17.3508 26.3125 17.5 26.3125C17.6492 26.3125 17.7923 26.2532 17.8977 26.1477C18.0032 26.0423 18.0625 25.8992 18.0625 25.75V18.25C18.0625 18.1008 18.0032 17.9577 17.8977 17.8523C17.7923 17.7468 17.6492 17.6875 17.5 17.6875ZM27.0625 25.75V18.25C27.0625 18.1008 27.0032 17.9577 26.8977 17.8523C26.7923 17.7468 26.6492 17.6875 26.5 17.6875C26.3508 17.6875 26.2077 17.7468 26.1023 17.8523C25.9968 17.9577 25.9375 18.1008 25.9375 18.25V25.75C25.9375 25.8992 25.9968 26.0423 26.1023 26.1477C26.2077 26.2532 26.3508 26.3125 26.5 26.3125C26.6492 26.3125 26.7923 26.2532 26.8977 26.1477C27.0032 26.0423 27.0625 25.8992 27.0625 25.75ZM23.5 17.6875C23.3508 17.6875 23.2077 17.7468 23.1023 17.8523C22.9968 17.9577 22.9375 18.1008 22.9375 18.25V25.75C22.9375 25.8992 22.9968 26.0423 23.1023 26.1477C23.2077 26.2532 23.3508 26.3125 23.5 26.3125C23.6492 26.3125 23.7923 26.2532 23.8977 26.1477C24.0032 26.0423 24.0625 25.8992 24.0625 25.75V18.25C24.0625 18.1008 24.0032 17.9577 23.8977 17.8523C23.7923 17.7468 23.6492 17.6875 23.5 17.6875ZM20.5 17.6875C20.3508 17.6875 20.2077 17.7468 20.1023 17.8523C19.9968 17.9577 19.9375 18.1008 19.9375 18.25V25.75C19.9375 25.8992 19.9968 26.0423 20.1023 26.1477C20.2077 26.2532 20.3508 26.3125 20.5 26.3125C20.6492 26.3125 20.7923 26.2532 20.8977 26.1477C21.0032 26.0423 21.0625 25.8992 21.0625 25.75V18.25C21.0625 18.1008 21.0032 17.9577 20.8977 17.8523C20.7923 17.7468 20.6492 17.6875 20.5 17.6875Z" fill="#2F5E8D" stroke="#2F5E8D" stroke-width="0.5"/>
<rect x="0.5" y="0.5" width="43" height="43" rx="21.5" stroke="#CFE2F4"/>
</svg>
