<svg width="40" height="40" viewBox="0 0 40 40" fill="none" xmlns="http://www.w3.org/2000/svg">
<path fill-rule="evenodd" clip-rule="evenodd" d="M33.0911 1.83983L28.7771 1.83983C28.269 1.83983 27.8571 1.42797 27.8571 0.919913C27.8571 0.411859 28.269 0 28.7771 0L33.0911 0C36.9067 0 40 3.09218 40 6.90675V11.2229C40 11.731 39.5881 12.1429 39.0801 12.1429C38.572 12.1429 38.1602 11.731 38.1602 11.2229V6.90675C38.1602 4.10844 35.8907 1.83983 33.0911 1.83983ZM1.83983 6.90895V11.2229C1.83983 11.731 1.42797 12.1429 0.919914 12.1429C0.411858 12.1429 0 11.731 0 11.2229V6.90895C0 3.09332 3.09218 0 6.90675 0L11.2229 0C11.731 0 12.1429 0.411859 12.1429 0.919913C12.1429 1.42797 11.731 1.83983 11.2229 1.83983L6.90675 1.83983C4.10844 1.83983 1.83983 4.10927 1.83983 6.90895ZM11.2229 38.1602H6.90895C4.10927 38.1602 1.83983 35.8916 1.83983 33.0932V28.7771C1.83983 28.269 1.42797 27.8571 0.919914 27.8571C0.411858 27.8571 0 28.269 0 28.7771V33.0932C0 36.9078 3.09332 40 6.90895 40H11.2229C11.731 40 12.1429 39.5881 12.1429 39.0801C12.1429 38.572 11.731 38.1602 11.2229 38.1602ZM38.1602 33.0911V28.7771C38.1602 28.269 38.572 27.8571 39.0801 27.8571C39.5881 27.8571 40 28.269 40 28.7771V33.0911C40 36.9067 36.9078 40 33.0932 40H28.7771C28.269 40 27.8571 39.5881 27.8571 39.0801C27.8571 38.572 28.269 38.1602 28.7771 38.1602H33.0932C35.8916 38.1602 38.1602 35.8907 38.1602 33.0911ZM29.642 18.3928C29.642 19.2799 28.9228 19.9991 28.0357 19.9991C27.1486 19.9991 26.4295 19.2799 26.4295 18.3928V15.1768C26.4295 14.2897 27.1486 13.5705 28.0357 13.5705C28.9228 13.5705 29.642 14.2897 29.642 15.1768V18.3928ZM11.6071 20C12.4947 20 13.2143 19.2805 13.2143 18.3929V15.1786C13.2143 14.291 12.4947 13.5714 11.6071 13.5714C10.7195 13.5714 10 14.291 10 15.1786V18.3929C10 19.2805 10.7195 20 11.6071 20ZM19.706 14.4888V21.1264C19.706 22.0737 19.2368 22.9544 18.464 23.4578L17.6016 24.0196C17.1882 24.2888 17.0634 24.8551 17.3227 25.2843C17.5821 25.7135 18.1275 25.8431 18.5409 25.5738L19.4032 25.0121C20.6913 24.173 21.4732 22.7052 21.4732 21.1264V14.4888C21.4732 13.9821 21.0776 13.5714 20.5896 13.5714C20.1016 13.5714 19.706 13.9821 19.706 14.4888ZM14.8329 30.6047L13.6392 29.8668C13.2198 29.6075 13.0899 29.0573 13.3491 28.6378C13.6083 28.2184 14.1584 28.0885 14.5778 28.3477L15.7715 29.0857C18.4744 30.7565 21.8891 30.7571 24.5925 29.0871L25.7895 28.3476C26.209 28.0885 26.759 28.2185 27.0181 28.6381C27.2772 29.0576 27.1471 29.6078 26.7277 29.8669L25.5306 30.6064C22.252 32.6317 18.1109 32.631 14.8329 30.6047Z" fill="#2F5E8D"/>
</svg>
