<svg width="37" height="30" viewBox="0 0 37 30" fill="none" xmlns="http://www.w3.org/2000/svg">
<path d="M10.8917 1.86657e-08H35C35.442 1.86657e-08 35.866 0.175595 36.1785 0.488155C36.4911 0.800716 36.6667 1.22464 36.6667 1.66667V28.3333C36.6667 28.7754 36.4911 29.1993 36.1785 29.5118C35.866 29.8244 35.442 30 35 30H10.8917C10.6174 30 10.3473 29.9324 10.1054 29.803C9.86347 29.6736 9.65726 29.4865 9.50501 29.2583L0.616675 15.925C0.433944 15.6511 0.336426 15.3292 0.336426 15C0.336426 14.6708 0.433944 14.3489 0.616675 14.075L9.50501 0.741667C9.65726 0.513473 9.86347 0.326387 10.1054 0.197008C10.3473 0.0676298 10.6174 -4.10321e-05 10.8917 1.86657e-08ZM21.6667 12.6433L16.9533 7.92833L14.595 10.2867L19.31 15L14.595 19.7133L16.9533 22.0717L21.6667 17.3567L26.38 22.0717L28.7383 19.7133L24.0233 15L28.7383 10.2867L26.38 7.92833L21.6667 12.6433Z" fill="#2F5E8D"/>
</svg>
