<svg width="65" height="64" viewBox="0 0 65 64" fill="none" xmlns="http://www.w3.org/2000/svg">
<g id="solar:call-chat-rounded-linear">
<g id="Group">
<path id="Vector" d="M45.8336 32.0001C48.7332 31.9996 51.5535 31.0539 53.8673 29.3064C56.1811 27.5588 57.8621 25.1047 58.6557 22.3159C59.4492 19.527 59.312 16.5555 58.2649 13.8517C57.2178 11.1478 55.3179 8.85896 52.8529 7.33201C50.388 5.80507 47.4926 5.12325 44.6053 5.38988C41.718 5.65652 38.9964 6.85707 36.8528 8.8096C34.7092 10.7621 33.2606 13.3602 32.7263 16.2101C32.1921 19.06 32.6014 22.0064 33.8923 24.6027C34.1364 25.0741 34.1999 25.6184 34.071 26.1334L33.2763 29.1014C33.1976 29.3952 33.1977 29.7046 33.2764 29.9985C33.3552 30.2923 33.5099 30.5602 33.725 30.7754C33.9401 30.9905 34.2081 31.1452 34.5019 31.2239C34.7957 31.3027 35.1051 31.3027 35.399 31.2241L38.367 30.4294C38.8819 30.3005 39.4262 30.364 39.8976 30.6081C41.7416 31.5261 43.7738 32.0027 45.8336 32.0001Z" stroke="#2F5E8D" stroke-width="3"/>
<path id="Vector_2" d="M21.9349 19.5094L23.6656 22.6108C25.2256 25.4108 24.5989 29.0801 22.1402 31.5414C22.1402 31.5414 19.1536 34.5254 24.5669 39.9361C29.9722 45.3414 32.9589 42.3628 32.9589 42.3628C35.4202 39.9014 39.0922 39.2748 41.8896 40.8348L44.9909 42.5681C49.2176 44.9254 49.7162 50.8508 46.0016 54.5681C43.7696 56.7974 41.0336 58.5361 38.0122 58.6481C32.9242 58.8428 24.2816 57.5548 15.6122 48.8881C6.94557 40.2188 5.65757 31.5761 5.85223 26.4881C5.9669 23.4668 7.7029 20.7308 9.93223 18.4988C13.6496 14.7841 19.5749 15.2828 21.9322 19.5121L21.9349 19.5094Z" stroke="#2F5E8D" stroke-width="3" stroke-linecap="round"/>
</g>
</g>
</svg>
