<svg width="280" height="168" viewBox="0 0 280 168" fill="none" xmlns="http://www.w3.org/2000/svg">
<rect x="0.451613" y="0.451613" width="279.097" height="167.097" rx="8.58065" fill="#FAFCFF"/>
<g filter="url(#filter0_ii_1387_44809)">
<path d="M18.9668 46.037C18.9668 43.8074 20.7846 42 23.027 42L57.5388 42C59.7812 42 61.599 43.8074 61.599 46.037V68.3723C61.599 70.6019 59.7812 72.4093 57.5388 72.4093H23.027C20.7846 72.4093 18.9668 70.6019 18.9668 68.3723L18.9668 46.037Z" fill="#FFFEFC"/>
<path d="M18.9668 46.037C18.9668 43.8074 20.7846 42 23.027 42L57.5388 42C59.7812 42 61.599 43.8074 61.599 46.037V68.3723C61.599 70.6019 59.7812 72.4093 57.5388 72.4093H23.027C20.7846 72.4093 18.9668 70.6019 18.9668 68.3723L18.9668 46.037Z" fill="url(#paint0_radial_1387_44809)" fill-opacity="0.05"/>
<path d="M18.9668 46.037C18.9668 43.8074 20.7846 42 23.027 42L57.5388 42C59.7812 42 61.599 43.8074 61.599 46.037V68.3723C61.599 70.6019 59.7812 72.4093 57.5388 72.4093H23.027C20.7846 72.4093 18.9668 70.6019 18.9668 68.3723L18.9668 46.037Z" fill="url(#paint1_radial_1387_44809)" fill-opacity="0.05"/>
<path d="M18.9668 46.037C18.9668 43.8074 20.7846 42 23.027 42L57.5388 42C59.7812 42 61.599 43.8074 61.599 46.037V68.3723C61.599 70.6019 59.7812 72.4093 57.5388 72.4093H23.027C20.7846 72.4093 18.9668 70.6019 18.9668 68.3723L18.9668 46.037Z" fill="url(#paint2_radial_1387_44809)" fill-opacity="0.05"/>
</g>
<mask id="mask0_1387_44809" style="mask-type:alpha" maskUnits="userSpaceOnUse" x="18" y="42" width="44" height="31">
<path d="M18.9668 46.037C18.9668 43.8074 20.7846 42 23.027 42L57.5388 42C59.7812 42 61.599 43.8074 61.599 46.037V68.3723C61.599 70.6019 59.7812 72.4093 57.5388 72.4093H23.027C20.7846 72.4093 18.9668 70.6019 18.9668 68.3723L18.9668 46.037Z" fill="#D9D9D9"/>
</mask>
<g mask="url(#mask0_1387_44809)">
<path fill-rule="evenodd" clip-rule="evenodd" d="M18.7124 45.7733C18.7124 45.0765 19.2805 44.5117 19.9812 44.5117H29.9993C30.7001 44.5117 31.2682 45.0765 31.2682 45.7733V52.0482C31.2682 52.745 30.7001 53.3098 29.9993 53.3098H19.9812C19.2805 53.3098 18.7124 52.745 18.7124 52.0482V45.7733ZM19.9812 45.0163C19.5608 45.0163 19.2199 45.3552 19.2199 45.7733V52.0482C19.2199 52.4663 19.5608 52.8052 19.9812 52.8052H29.9993C30.4198 52.8052 30.7606 52.4663 30.7606 52.0482V45.7733C30.7606 45.3552 30.4198 45.0163 29.9993 45.0163H19.9812Z" fill="#10141E"/>
<path fill-rule="evenodd" clip-rule="evenodd" d="M18.7119 54.0667C18.7119 53.37 19.28 52.8052 19.9807 52.8052H29.9989C30.6996 52.8052 31.2677 53.37 31.2677 54.0667V60.3417C31.2677 61.0384 30.6996 61.6033 29.9989 61.6033H19.9807C19.28 61.6033 18.7119 61.0384 18.7119 60.3417V54.0667ZM19.9807 53.3098C19.5603 53.3098 19.2194 53.6487 19.2194 54.0667V60.3417C19.2194 60.7597 19.5603 61.0986 19.9807 61.0986H29.9989C30.4193 61.0986 30.7601 60.7597 30.7601 60.3417V54.0667C30.7601 53.6487 30.4193 53.3098 29.9989 53.3098H19.9807Z" fill="#10141E"/>
<path fill-rule="evenodd" clip-rule="evenodd" d="M33.5421 53.1458C33.5421 52.4491 34.1101 51.8843 34.8109 51.8843H48.5362C49.2369 51.8843 49.805 52.4491 49.805 53.1458V53.4311C49.805 54.1278 49.2369 54.6926 48.5362 54.6926H47.7859C47.3655 54.6926 47.0246 55.0315 47.0246 55.4496V62.1853C47.0246 62.882 46.4566 63.4468 45.7558 63.4468H32.0305C31.3298 63.4468 30.7617 62.882 30.7617 62.1853L30.7617 61.4393C30.7617 60.7425 31.3298 60.1777 32.0305 60.1777H32.7808C33.2012 60.1777 33.5421 59.8388 33.5421 59.4208V53.1458ZM34.8109 52.3889C34.3904 52.3889 34.0496 52.7278 34.0496 53.1458V59.4208C34.0496 60.1175 33.4815 60.6824 32.7808 60.6824H32.0305C31.6101 60.6824 31.2692 61.0212 31.2692 61.4393L31.2692 62.1853C31.2692 62.6033 31.6101 62.9422 32.0305 62.9422H45.7558C46.1763 62.9422 46.5171 62.6033 46.5171 62.1853V55.4496C46.5171 54.7528 47.0852 54.188 47.7859 54.188H48.5362C48.9566 54.188 49.2975 53.8491 49.2975 53.4311V53.1458C49.2975 52.7278 48.9566 52.3889 48.5362 52.3889H34.8109Z" fill="#10141E"/>
<path fill-rule="evenodd" clip-rule="evenodd" d="M18.7119 62.3602C18.7119 61.6635 19.28 61.0986 19.9807 61.0986H29.9989C30.6996 61.0986 31.2677 61.6635 31.2677 62.3602V68.6351C31.2677 69.3319 30.6996 69.8967 29.9989 69.8967H19.9807C19.28 69.8967 18.7119 69.3319 18.7119 68.6351V62.3602ZM19.9807 61.6033C19.5603 61.6033 19.2194 61.9422 19.2194 62.3602V68.6351C19.2194 69.0532 19.5603 69.3921 19.9807 69.3921H29.9989C30.4193 69.3921 30.7601 69.0532 30.7601 68.6351V62.3602C30.7601 61.9422 30.4193 61.6033 29.9989 61.6033H19.9807Z" fill="#10141E"/>
<path fill-rule="evenodd" clip-rule="evenodd" d="M49.2969 45.7738C49.2969 45.077 49.8649 44.5122 50.5657 44.5122H60.5838C61.2846 44.5122 61.8526 45.077 61.8526 45.7738V52.0487C61.8526 52.7455 61.2846 53.3103 60.5838 53.3103H50.5657C49.8649 53.3103 49.2969 52.7455 49.2969 52.0487V45.7738ZM50.5657 45.0168C50.1452 45.0168 49.8044 45.3557 49.8044 45.7738V52.0487C49.8044 52.4668 50.1452 52.8057 50.5657 52.8057H60.5838C61.0043 52.8057 61.3451 52.4668 61.3451 52.0487V45.7738C61.3451 45.3557 61.0043 45.0168 60.5838 45.0168H50.5657Z" fill="#10141E"/>
<path fill-rule="evenodd" clip-rule="evenodd" d="M49.2969 54.0667C49.2969 53.37 49.8649 52.8052 50.5657 52.8052H60.5838C61.2846 52.8052 61.8526 53.37 61.8526 54.0667V60.3417C61.8526 61.0384 61.2846 61.6033 60.5838 61.6033H50.5657C49.8649 61.6033 49.2969 61.0384 49.2969 60.3417V54.0667ZM50.5657 53.3098C50.1452 53.3098 49.8044 53.6487 49.8044 54.0667V60.3417C49.8044 60.7597 50.1452 61.0986 50.5657 61.0986H60.5838C61.0043 61.0986 61.3451 60.7597 61.3451 60.3417V54.0667C61.3451 53.6487 61.0043 53.3098 60.5838 53.3098H50.5657Z" fill="#10141E"/>
<path fill-rule="evenodd" clip-rule="evenodd" d="M49.2969 62.3602C49.2969 61.6635 49.8649 61.0986 50.5657 61.0986H60.5838C61.2846 61.0986 61.8526 61.6635 61.8526 62.3602V68.6351C61.8526 69.3319 61.2846 69.8967 60.5838 69.8967H50.5657C49.8649 69.8967 49.2969 69.3319 49.2969 68.6351V62.3602ZM50.5657 61.6033C50.1452 61.6033 49.8044 61.9422 49.8044 62.3602V68.6351C49.8044 69.0532 50.1452 69.3921 50.5657 69.3921H60.5838C61.0043 69.3921 61.3451 69.0532 61.3451 68.6351V62.3602C61.3451 61.9422 61.0043 61.6033 60.5838 61.6033H50.5657Z" fill="#10141E"/>
</g>
<path d="M249.724 31.101C249.589 31.2416 249.427 31.3541 249.248 31.4321C249.07 31.5101 248.877 31.552 248.682 31.5554C248.487 31.5589 248.293 31.5238 248.112 31.4521C247.93 31.3805 247.765 31.2738 247.625 31.138C247.483 30.9998 247.369 30.8348 247.29 30.6526C247.212 30.4703 247.17 30.2744 247.168 30.076C247.173 29.6899 247.323 29.3198 247.588 29.0387C248.435 28.15 248.907 26.9693 248.907 25.7416C248.907 24.5138 248.435 23.3332 247.588 22.4445C247.452 22.3042 247.346 22.1386 247.275 21.9572C247.203 21.7758 247.168 21.5821 247.172 21.3871C247.175 21.1922 247.217 20.9999 247.295 20.8211C247.372 20.6423 247.485 20.4806 247.625 20.3452C247.765 20.2098 247.931 20.1033 248.112 20.0319C248.294 19.9605 248.487 19.9255 248.682 19.9289C248.877 19.9324 249.069 19.9742 249.248 20.0519C249.427 20.1297 249.589 20.2419 249.724 20.3822C251.104 21.8253 251.874 23.745 251.874 25.7416C251.874 27.7382 251.104 29.6579 249.724 31.101ZM253.898 35.2995C256.399 32.7467 257.8 29.3153 257.8 25.7416C257.8 22.1678 256.399 18.7364 253.898 16.1836C253.763 16.0442 253.602 15.9329 253.424 15.8562C253.245 15.7794 253.054 15.7387 252.86 15.7364C252.666 15.7341 252.473 15.7703 252.293 15.8428C252.113 15.9153 251.949 16.0228 251.811 16.1589C251.671 16.295 251.56 16.4573 251.483 16.6365C251.406 16.8157 251.365 17.0084 251.363 17.2034C251.361 17.3985 251.397 17.5921 251.469 17.7731C251.542 17.9541 251.65 18.1189 251.786 18.2582C253.741 20.2586 254.836 22.9445 254.836 25.7416C254.836 28.5386 253.741 31.2246 251.786 33.225C251.515 33.5018 251.364 33.8746 251.367 34.2623C251.367 34.4599 251.406 34.6555 251.482 34.8378C251.559 35.0201 251.67 35.1854 251.811 35.3242C251.949 35.4604 252.113 35.5679 252.293 35.6404C252.473 35.7129 252.666 35.749 252.86 35.7467C253.054 35.7444 253.245 35.7037 253.424 35.627C253.602 35.5502 253.763 35.439 253.898 35.2995ZM246.439 25.7416C246.439 25.3508 246.324 24.9688 246.106 24.6439C245.889 24.319 245.581 24.0657 245.22 23.9162C244.859 23.7666 244.461 23.7275 244.078 23.8037C243.695 23.88 243.343 24.0682 243.066 24.3445C242.79 24.6208 242.602 24.9729 242.526 25.3561C242.45 25.7394 242.489 26.1367 242.638 26.4977C242.788 26.8587 243.041 27.1673 243.366 27.3844C243.691 27.6015 244.073 27.7174 244.464 27.7174C244.988 27.7174 245.49 27.5092 245.861 27.1387C246.231 26.7682 246.439 26.2656 246.439 25.7416Z" fill="#2F5E8D"/>
<path d="M31.9042 106.756C31.5467 106.756 31.2197 106.669 30.9234 106.495C30.6317 106.316 30.3965 106.081 30.2177 105.789C30.0437 105.493 29.9566 105.166 29.9566 104.808C29.9566 104.446 30.0437 104.119 30.2177 103.828C30.3965 103.536 30.6317 103.303 30.9234 103.129C31.2197 102.95 31.5467 102.861 31.9042 102.861C32.2664 102.861 32.5934 102.95 32.885 103.129C33.1767 103.303 33.4096 103.536 33.5836 103.828C33.7624 104.119 33.8518 104.446 33.8518 104.808C33.8518 105.166 33.7624 105.493 33.5836 105.789C33.4096 106.081 33.1767 106.316 32.885 106.495C32.5934 106.669 32.2664 106.756 31.9042 106.756ZM45.4526 106.756C45.0951 106.756 44.7681 106.669 44.4717 106.495C44.1801 106.316 43.9449 106.081 43.7661 105.789C43.592 105.493 43.505 105.166 43.505 104.808C43.505 104.446 43.592 104.119 43.7661 103.828C43.9449 103.536 44.1801 103.303 44.4717 103.129C44.7681 102.95 45.0951 102.861 45.4526 102.861C45.8148 102.861 46.1418 102.95 46.4334 103.129C46.7251 103.303 46.958 103.536 47.132 103.828C47.3108 104.119 47.4002 104.446 47.4002 104.808C47.4002 105.166 47.3108 105.493 47.132 105.789C46.958 106.081 46.7251 106.316 46.4334 106.495C46.1418 106.669 45.8148 106.756 45.4526 106.756ZM59.001 106.756C58.6435 106.756 58.3165 106.669 58.0201 106.495C57.7285 106.316 57.4932 106.081 57.3145 105.789C57.1404 105.493 57.0534 105.166 57.0534 104.808C57.0534 104.446 57.1404 104.119 57.3145 103.828C57.4932 103.536 57.7285 103.303 58.0201 103.129C58.3165 102.95 58.6435 102.861 59.001 102.861C59.3632 102.861 59.6902 102.95 59.9818 103.129C60.2735 103.303 60.5064 103.536 60.6804 103.828C60.8592 104.119 60.9486 104.446 60.9486 104.808C60.9486 105.166 60.8592 105.493 60.6804 105.789C60.5064 106.081 60.2735 106.316 59.9818 106.495C59.6902 106.669 59.3632 106.756 59.001 106.756ZM72.5494 106.756C72.1918 106.756 71.8649 106.669 71.5685 106.495C71.2769 106.316 71.0416 106.081 70.8629 105.789C70.6888 105.493 70.6018 105.166 70.6018 104.808C70.6018 104.446 70.6888 104.119 70.8629 103.828C71.0416 103.536 71.2769 103.303 71.5685 103.129C71.8649 102.95 72.1918 102.861 72.5494 102.861C72.9116 102.861 73.2385 102.95 73.5302 103.129C73.8219 103.303 74.0547 103.536 74.2288 103.828C74.4076 104.119 74.4969 104.446 74.4969 104.808C74.4969 105.166 74.4076 105.493 74.2288 105.789C74.0547 106.081 73.8219 106.316 73.5302 106.495C73.2385 106.669 72.9116 106.756 72.5494 106.756Z" fill="#858585"/>
<path d="M91.7001 106.756C91.3426 106.756 91.0156 106.669 90.7193 106.495C90.4276 106.316 90.1924 106.081 90.0136 105.789C89.8395 105.493 89.7525 105.166 89.7525 104.808C89.7525 104.446 89.8395 104.119 90.0136 103.828C90.1924 103.536 90.4276 103.303 90.7193 103.129C91.0156 102.95 91.3426 102.861 91.7001 102.861C92.0623 102.861 92.3893 102.95 92.6809 103.129C92.9726 103.303 93.2055 103.536 93.3795 103.828C93.5583 104.119 93.6477 104.446 93.6477 104.808C93.6477 105.166 93.5583 105.493 93.3795 105.789C93.2055 106.081 92.9726 106.316 92.6809 106.495C92.3893 106.669 92.0623 106.756 91.7001 106.756ZM105.248 106.756C104.891 106.756 104.564 106.669 104.268 106.495C103.976 106.316 103.741 106.081 103.562 105.789C103.388 105.493 103.301 105.166 103.301 104.808C103.301 104.446 103.388 104.119 103.562 103.828C103.741 103.536 103.976 103.303 104.268 103.129C104.564 102.95 104.891 102.861 105.248 102.861C105.611 102.861 105.938 102.95 106.229 103.129C106.521 103.303 106.754 103.536 106.928 103.828C107.107 104.119 107.196 104.446 107.196 104.808C107.196 105.166 107.107 105.493 106.928 105.789C106.754 106.081 106.521 106.316 106.229 106.495C105.938 106.669 105.611 106.756 105.248 106.756ZM118.797 106.756C118.439 106.756 118.112 106.669 117.816 106.495C117.524 106.316 117.289 106.081 117.11 105.789C116.936 105.493 116.849 105.166 116.849 104.808C116.849 104.446 116.936 104.119 117.11 103.828C117.289 103.536 117.524 103.303 117.816 103.129C118.112 102.95 118.439 102.861 118.797 102.861C119.159 102.861 119.486 102.95 119.778 103.129C120.069 103.303 120.302 103.536 120.476 103.828C120.655 104.119 120.744 104.446 120.744 104.808C120.744 105.166 120.655 105.493 120.476 105.789C120.302 106.081 120.069 106.316 119.778 106.495C119.486 106.669 119.159 106.756 118.797 106.756ZM132.345 106.756C131.988 106.756 131.661 106.669 131.364 106.495C131.073 106.316 130.838 106.081 130.659 105.789C130.485 105.493 130.398 105.166 130.398 104.808C130.398 104.446 130.485 104.119 130.659 103.828C130.838 103.536 131.073 103.303 131.364 103.129C131.661 102.95 131.988 102.861 132.345 102.861C132.707 102.861 133.034 102.95 133.326 103.129C133.618 103.303 133.851 103.536 134.025 103.828C134.203 104.119 134.293 104.446 134.293 104.808C134.293 105.166 134.203 105.493 134.025 105.789C133.851 106.081 133.618 106.316 133.326 106.495C133.034 106.669 132.707 106.756 132.345 106.756Z" fill="#858585"/>
<path d="M151.496 106.756C151.138 106.756 150.811 106.669 150.515 106.495C150.223 106.316 149.988 106.081 149.809 105.789C149.635 105.493 149.548 105.166 149.548 104.808C149.548 104.446 149.635 104.119 149.809 103.828C149.988 103.536 150.223 103.303 150.515 103.129C150.811 102.95 151.138 102.861 151.496 102.861C151.858 102.861 152.185 102.95 152.476 103.129C152.768 103.303 153.001 103.536 153.175 103.828C153.354 104.119 153.443 104.446 153.443 104.808C153.443 105.166 153.354 105.493 153.175 105.789C153.001 106.081 152.768 106.316 152.476 106.495C152.185 106.669 151.858 106.756 151.496 106.756ZM165.044 106.756C164.686 106.756 164.359 106.669 164.063 106.495C163.771 106.316 163.536 106.081 163.357 105.789C163.183 105.493 163.096 105.166 163.096 104.808C163.096 104.446 163.183 104.119 163.357 103.828C163.536 103.536 163.771 103.303 164.063 103.129C164.359 102.95 164.686 102.861 165.044 102.861C165.406 102.861 165.733 102.95 166.025 103.129C166.316 103.303 166.549 103.536 166.723 103.828C166.902 104.119 166.991 104.446 166.991 104.808C166.991 105.166 166.902 105.493 166.723 105.789C166.549 106.081 166.316 106.316 166.025 106.495C165.733 106.669 165.406 106.756 165.044 106.756ZM178.592 106.756C178.235 106.756 177.908 106.669 177.611 106.495C177.32 106.316 177.085 106.081 176.906 105.789C176.732 105.493 176.645 105.166 176.645 104.808C176.645 104.446 176.732 104.119 176.906 103.828C177.085 103.536 177.32 103.303 177.611 103.129C177.908 102.95 178.235 102.861 178.592 102.861C178.955 102.861 179.281 102.95 179.573 103.129C179.865 103.303 180.098 103.536 180.272 103.828C180.45 104.119 180.54 104.446 180.54 104.808C180.54 105.166 180.45 105.493 180.272 105.789C180.098 106.081 179.865 106.316 179.573 106.495C179.281 106.669 178.955 106.756 178.592 106.756ZM192.141 106.756C191.783 106.756 191.456 106.669 191.16 106.495C190.868 106.316 190.633 106.081 190.454 105.789C190.28 105.493 190.193 105.166 190.193 104.808C190.193 104.446 190.28 104.119 190.454 103.828C190.633 103.536 190.868 103.303 191.16 103.129C191.456 102.95 191.783 102.861 192.141 102.861C192.503 102.861 192.83 102.95 193.122 103.129C193.413 103.303 193.646 103.536 193.82 103.828C193.999 104.119 194.088 104.446 194.088 104.808C194.088 105.166 193.999 105.493 193.82 105.789C193.646 106.081 193.413 106.316 193.122 106.495C192.83 106.669 192.503 106.756 192.141 106.756Z" fill="#858585"/>
<path d="M211.771 98.4859V109H210.833V99.495H210.769L208.314 101.132V100.144L210.79 98.4859H211.771ZM217.042 109V108.301L220.479 104.434C220.921 103.931 221.279 103.501 221.551 103.143C221.824 102.781 222.024 102.449 222.151 102.148C222.278 101.842 222.342 101.525 222.342 101.196C222.342 100.796 222.248 100.445 222.06 100.144C221.871 99.8431 221.615 99.6102 221.29 99.4456C220.971 99.2809 220.606 99.1986 220.197 99.1986C219.764 99.1986 219.385 99.2903 219.061 99.4738C218.741 99.6573 218.491 99.9113 218.313 100.236C218.139 100.556 218.051 100.923 218.051 101.337H217.134C217.134 100.758 217.268 100.243 217.536 99.7913C217.805 99.3397 218.171 98.9869 218.637 98.7329C219.103 98.4741 219.632 98.3448 220.225 98.3448C220.813 98.3448 221.333 98.4718 221.784 98.7258C222.241 98.9751 222.598 99.3162 222.857 99.749C223.116 100.177 223.245 100.659 223.245 101.196C223.245 101.581 223.177 101.955 223.04 102.318C222.909 102.675 222.678 103.077 222.349 103.524C222.02 103.971 221.566 104.514 220.987 105.154L218.376 108.069V108.139H223.577V109H217.042ZM232.002 109.141C231.353 109.141 230.772 109.026 230.259 108.795C229.751 108.56 229.349 108.236 229.052 107.822C228.756 107.403 228.599 106.921 228.58 106.375H229.546C229.565 106.756 229.683 107.09 229.899 107.377C230.12 107.664 230.412 107.887 230.774 108.047C231.137 108.203 231.539 108.28 231.981 108.28C232.47 108.28 232.901 108.191 233.272 108.012C233.649 107.829 233.94 107.579 234.147 107.264C234.359 106.949 234.465 106.591 234.465 106.192C234.465 105.763 234.357 105.387 234.14 105.062C233.924 104.738 233.613 104.486 233.209 104.307C232.809 104.124 232.331 104.032 231.776 104.032H231.162V103.164H231.776C232.228 103.164 232.628 103.082 232.976 102.917C233.329 102.753 233.606 102.522 233.809 102.226C234.011 101.925 234.112 101.57 234.112 101.16C234.112 100.775 234.025 100.433 233.851 100.137C233.677 99.8407 233.432 99.6102 233.117 99.4456C232.802 99.2809 232.433 99.1986 232.009 99.1986C231.605 99.1986 231.231 99.2786 230.887 99.4385C230.548 99.5937 230.276 99.8149 230.069 100.102C229.862 100.384 229.753 100.72 229.744 101.111H228.813C228.827 100.565 228.977 100.085 229.264 99.6714C229.556 99.2574 229.942 98.9328 230.421 98.6976C230.901 98.4624 231.435 98.3448 232.023 98.3448C232.64 98.3448 233.173 98.4718 233.625 98.7258C234.081 98.9751 234.432 99.3115 234.676 99.7349C234.926 100.154 235.048 100.615 235.043 101.118C235.048 101.72 234.888 102.233 234.564 102.656C234.239 103.08 233.801 103.374 233.251 103.538V103.609C233.919 103.741 234.444 104.037 234.825 104.498C235.21 104.959 235.403 105.524 235.403 106.192C235.403 106.751 235.255 107.255 234.959 107.702C234.667 108.144 234.265 108.494 233.752 108.753C233.244 109.012 232.661 109.141 232.002 109.141ZM240.138 106.735V105.959L244.817 98.4859H245.395V99.7913H244.965L241.204 105.803V105.874H247.35V106.735H240.138ZM245.035 109V106.495V106.135V98.4859H245.953V109H245.035Z" fill="#858585"/>
<path d="M23.4249 146.889C22.8248 146.889 22.3107 146.715 21.8826 146.367C21.4583 146.019 21.1334 145.52 20.9079 144.87C20.6824 144.217 20.5697 143.429 20.5697 142.508C20.5697 141.587 20.6824 140.8 20.9079 140.146C21.1334 139.489 21.4602 138.986 21.8883 138.638C22.3164 138.29 22.8286 138.117 23.4249 138.117C24.0212 138.117 24.5314 138.29 24.9557 138.638C25.38 138.986 25.7049 139.489 25.9304 140.146C26.1597 140.8 26.2744 141.587 26.2744 142.508C26.2744 143.429 26.1616 144.217 25.9361 144.87C25.7106 145.52 25.3857 146.019 24.9614 146.367C24.5372 146.715 24.025 146.889 23.4249 146.889ZM23.4249 146.195C23.8683 146.195 24.2467 146.05 24.5601 145.759C24.8735 145.465 25.1124 145.042 25.2768 144.492C25.4449 143.942 25.529 143.28 25.529 142.508C25.529 141.732 25.4449 141.069 25.2768 140.519C25.1124 139.965 24.8735 139.542 24.5601 139.252C24.2467 138.957 23.8683 138.81 23.4249 138.81C22.756 138.81 22.2362 139.137 21.8654 139.791C21.4985 140.44 21.315 141.346 21.315 142.508C21.315 143.28 21.3972 143.942 21.5615 144.492C21.7297 145.042 21.9705 145.465 22.2839 145.759C22.6012 146.05 22.9815 146.195 23.4249 146.195ZM30.5731 138.231V146.774H29.8105V139.051H29.7589L27.7637 140.381V139.579L29.7761 138.231H30.5731ZM35.5426 137.83L32.7906 148.058H32.0911L34.8431 137.83H35.5426ZM36.8829 146.774V146.206L39.675 143.064C40.0343 142.655 40.3248 142.306 40.5465 142.015C40.7682 141.721 40.9306 141.451 41.0338 141.207C41.137 140.958 41.1886 140.7 41.1886 140.433C41.1886 140.108 41.1122 139.823 40.9593 139.579C40.8064 139.334 40.5981 139.145 40.3343 139.011C40.0744 138.877 39.7782 138.81 39.4457 138.81C39.094 138.81 38.7863 138.885 38.5226 139.034C38.2627 139.183 38.0601 139.389 37.9149 139.653C37.7734 139.913 37.7027 140.211 37.7027 140.547H36.9574C36.9574 140.077 37.0663 139.659 37.2842 139.292C37.5021 138.925 37.8002 138.638 38.1786 138.432C38.557 138.222 38.987 138.117 39.4686 138.117C39.9464 138.117 40.3687 138.22 40.7357 138.426C41.1064 138.629 41.3969 138.906 41.6072 139.257C41.8174 139.605 41.9225 139.997 41.9225 140.433C41.9225 140.746 41.8671 141.05 41.7562 141.344C41.6492 141.635 41.4619 141.962 41.1944 142.325C40.9268 142.688 40.5579 143.129 40.0878 143.649L37.9665 146.017V146.074H42.192V146.774H36.8829ZM46.6397 146.889C46.1696 146.889 45.7472 146.793 45.3727 146.602C44.9981 146.407 44.6999 146.139 44.4782 145.799C44.2566 145.459 44.14 145.073 44.1285 144.641H44.8796C44.9063 145.088 45.0841 145.459 45.4128 145.753C45.7415 146.044 46.1505 146.189 46.6397 146.189C47.0258 146.189 47.366 146.097 47.6603 145.914C47.9546 145.73 48.1858 145.48 48.354 145.163C48.5222 144.846 48.6063 144.486 48.6063 144.085C48.6063 143.668 48.5165 143.301 48.3368 142.984C48.161 142.663 47.9202 142.413 47.6144 142.233C47.3124 142.053 46.9723 141.964 46.5939 141.964C46.3034 141.964 46.0205 142.013 45.7453 142.113C45.4739 142.208 45.2484 142.331 45.0688 142.48L44.2833 142.382L44.7936 138.231H49.0133V138.936H45.4529L45.1089 141.792H45.1491C45.3402 141.631 45.5695 141.501 45.8371 141.402C46.1084 141.302 46.3989 141.253 46.7085 141.253C47.2092 141.253 47.6603 141.375 48.0616 141.62C48.4629 141.86 48.7802 142.193 49.0133 142.617C49.2503 143.038 49.3688 143.525 49.3688 144.079C49.3688 144.618 49.2503 145.1 49.0133 145.524C48.7802 145.948 48.4572 146.283 48.0444 146.527C47.6354 146.768 47.1672 146.889 46.6397 146.889Z" fill="#858585"/>
<rect x="0.451613" y="0.451613" width="279.097" height="167.097" rx="8.58065" stroke="#CFE2F4" stroke-width="0.903226"/>
<defs>
<filter id="filter0_ii_1387_44809" x="18.9668" y="42" width="42.6323" height="30.4092" filterUnits="userSpaceOnUse" color-interpolation-filters="sRGB">
<feFlood flood-opacity="0" result="BackgroundImageFix"/>
<feBlend mode="normal" in="SourceGraphic" in2="BackgroundImageFix" result="shape"/>
<feColorMatrix in="SourceAlpha" type="matrix" values="0 0 0 0 0 0 0 0 0 0 0 0 0 0 0 0 0 0 127 0" result="hardAlpha"/>
<feOffset dx="-0.49804" dy="-0.49804"/>
<feComposite in2="hardAlpha" operator="arithmetic" k2="-1" k3="1"/>
<feColorMatrix type="matrix" values="0 0 0 0 0.184314 0 0 0 0 0.152941 0 0 0 0 0.0941176 0 0 0 0.2 0"/>
<feBlend mode="normal" in2="shape" result="effect1_innerShadow_1387_44809"/>
<feColorMatrix in="SourceAlpha" type="matrix" values="0 0 0 0 0 0 0 0 0 0 0 0 0 0 0 0 0 0 127 0" result="hardAlpha"/>
<feOffset dx="0.49804" dy="0.49804"/>
<feComposite in2="hardAlpha" operator="arithmetic" k2="-1" k3="1"/>
<feColorMatrix type="matrix" values="0 0 0 0 0.184314 0 0 0 0 0.152941 0 0 0 0 0.0941176 0 0 0 0.2 0"/>
<feBlend mode="normal" in2="effect1_innerShadow_1387_44809" result="effect2_innerShadow_1387_44809"/>
</filter>
<radialGradient id="paint0_radial_1387_44809" cx="0" cy="0" r="1" gradientUnits="userSpaceOnUse" gradientTransform="translate(29.6248 42) rotate(70.6851) scale(32.223 45.1186)">
<stop stop-color="#C29632"/>
<stop offset="1" stop-color="#C29632" stop-opacity="0"/>
</radialGradient>
<radialGradient id="paint1_radial_1387_44809" cx="0" cy="0" r="1" gradientUnits="userSpaceOnUse" gradientTransform="translate(61.599 57.6654) rotate(145.329) scale(25.9183 36.0562)">
<stop stop-color="#664700"/>
<stop offset="1" stop-color="#664700"/>
</radialGradient>
<radialGradient id="paint2_radial_1387_44809" cx="0" cy="0" r="1" gradientUnits="userSpaceOnUse" gradientTransform="translate(24.5275 72.4093) rotate(-21.6885) scale(39.8958 55.3818)">
<stop stop-color="#402200"/>
<stop offset="1" stop-color="#402200" stop-opacity="0"/>
</radialGradient>
</defs>
</svg>
