<svg width="206" height="186" viewBox="0 0 206 186" fill="none" xmlns="http://www.w3.org/2000/svg">
<path d="M141.753 185.532H83.5482C74.8183 185.532 67.7158 178.429 67.7158 169.699V15.8324C67.7158 7.10244 74.8183 0 83.5482 0H141.753C150.483 0 157.585 7.10244 157.585 15.8324C158.669 77.6205 160.516 146.813 157.585 169.699C157.585 178.429 150.483 185.532 141.753 185.532Z" fill="#3D4B61"/>
<path d="M158.397 56.5972C158.028 56.5972 157.727 56.8976 157.727 57.267V78.7002C157.727 79.0696 158.028 79.37 158.397 79.37C158.766 79.37 159.067 79.0696 159.067 78.7002V57.267C159.067 56.8976 158.766 56.5972 158.397 56.5972Z" fill="#3D4B61"/>
<path d="M156.078 15.8326V169.696C156.078 177.295 150.164 183.511 142.686 183.993H142.683C142.572 184 142.462 184.006 142.348 184.01C142.15 184.02 141.953 184.023 141.752 184.023C141.752 184.023 141.015 183.97 139.669 183.869C138.309 183.769 136.33 183.618 133.862 183.42C133.122 183.363 132.341 183.3 131.517 183.233C129.876 183.099 128.075 182.952 126.142 182.784C125.372 182.72 124.575 182.65 123.761 182.58C119.602 182.221 114.943 181.803 110.031 181.327C109.2 181.25 108.363 181.17 107.519 181.086C107.298 181.063 69.2231 171.491 69.2231 169.696V15.8326C69.2231 7.91909 75.6364 1.50586 83.5499 1.50586H92.1031C93.4695 1.50586 94.5679 2.57082 94.6852 3.93384C94.6952 4.02427 94.7052 4.11468 94.722 4.20511C94.9698 5.57483 96.2257 6.52928 97.6188 6.52928H127.683C129.076 6.52928 130.332 5.57483 130.58 4.20511C130.596 4.11468 130.606 4.02427 130.617 3.93384C130.734 2.57082 131.832 1.50586 133.199 1.50586H141.752C149.665 1.50586 156.078 7.91909 156.078 15.8326Z" fill="white"/>
<path d="M67.3807 40.522C67.0113 40.522 66.7109 40.8224 66.7109 41.1918V46.5501C66.7109 46.9195 67.0113 47.2199 67.3807 47.2199C67.7501 47.2199 68.0505 46.9195 68.0505 46.5501V41.1918C68.0505 40.8224 67.7501 40.522 67.3807 40.522Z" fill="#3D4B61"/>
<path d="M67.3807 56.5972C67.0113 56.5972 66.7109 56.8976 66.7109 57.267V67.6487C66.7109 68.0181 67.0113 68.3185 67.3807 68.3185C67.7501 68.3185 68.0505 68.0181 68.0505 67.6487V57.267C68.0505 56.8976 67.7501 56.5972 67.3807 56.5972Z" fill="#3D4B61"/>
<path d="M67.3807 71.3325C67.0113 71.3325 66.7109 71.6329 66.7109 72.0023V82.384C66.7109 82.7534 67.0113 83.0538 67.3807 83.0538C67.7501 83.0538 68.0505 82.7534 68.0505 82.384V72.0023C68.0505 71.6329 67.7501 71.3325 67.3807 71.3325Z" fill="#3D4B61"/>
<path d="M91.8833 3.85107H79.0477C78.9855 3.85107 78.9351 3.9015 78.9351 3.9637V5.41292C78.9351 5.47512 78.9855 5.52554 79.0477 5.52554H91.8833C91.9455 5.52554 91.9959 5.47512 91.9959 5.41292V3.9637C91.9959 3.9015 91.9455 3.85107 91.8833 3.85107Z" fill="#ACB8CB"/>
<path d="M135.315 5.52583C136.055 5.52583 136.654 4.92608 136.654 4.18626C136.654 3.44643 136.055 2.84668 135.315 2.84668C134.575 2.84668 133.975 3.44643 133.975 4.18626C133.975 4.92608 134.575 5.52583 135.315 5.52583Z" fill="#ACB8CB"/>
<path d="M138.999 5.52583C139.739 5.52583 140.338 4.92608 140.338 4.18626C140.338 3.44643 139.739 2.84668 138.999 2.84668C138.259 2.84668 137.659 3.44643 137.659 4.18626C137.659 4.92608 138.259 5.52583 138.999 5.52583Z" fill="#ACB8CB"/>
<path d="M142.683 5.52583C143.422 5.52583 144.022 4.92608 144.022 4.18626C144.022 3.44643 143.422 2.84668 142.683 2.84668C141.943 2.84668 141.343 3.44643 141.343 4.18626C141.343 4.92608 141.943 5.52583 142.683 5.52583Z" fill="#ACB8CB"/>
<path d="M68.6688 182.73L64.5865 182.73L62.6445 166.984L68.6696 166.984L68.6688 182.73Z" fill="#FFB6B6"/>
<path d="M54.6825 182.638C54.5554 182.852 54.4883 183.543 54.4883 183.792C54.4883 184.557 55.1086 185.177 55.8738 185.177H68.5162C69.0382 185.177 69.4614 184.754 69.4614 184.232V183.705C69.4614 183.705 70.0868 182.124 68.7992 180.174C68.7992 180.174 67.1989 181.7 64.8076 179.309L64.1024 178.032L58.998 181.765L56.1687 182.113C55.5497 182.189 55.0009 182.101 54.6825 182.638Z" fill="#2F2E41"/>
<path d="M46.0934 160.859L42.0111 160.846L40.1191 145.094L46.1442 145.113L46.0934 160.859Z" fill="#FFB6B6"/>
<path d="M32.107 160.722C31.9792 160.936 31.91 161.626 31.9092 161.875C31.9068 162.64 32.5251 163.263 33.2903 163.265L45.9326 163.305C46.4546 163.307 46.8792 162.885 46.8808 162.363L46.8825 161.837C46.8825 161.837 47.5129 160.257 46.2315 158.303C46.2315 158.303 44.6264 159.825 42.2427 157.426L41.5416 156.146L36.4253 159.863L33.5949 160.202C32.9757 160.276 32.4271 160.187 32.107 160.722Z" fill="#2F2E41"/>
<path d="M62.7149 87.1367L57.6319 87.4998C57.6319 87.4998 40.4239 97.2836 38.9716 99.4621C37.5193 101.64 35.5225 104.727 37.3378 107.994C39.1532 111.262 37.7715 150.827 37.7715 150.827L46.4463 148.864L52.0043 107.469L63.6226 105.835C63.6226 105.835 67.6163 114.451 66.1641 121.58C64.7118 128.708 63.9856 133.065 63.9856 133.065L62.1703 175.181L69.2502 175L75.6039 135.97L86.496 105.109L72.3363 88.4075L62.7149 87.1367Z" fill="#2F2E41"/>
<path d="M87.7666 42.4795L77.2376 43.5687L76.1484 47.1994L65.9824 52.6455L69.25 75.519L66.7085 79.5128L67.7977 83.5065C67.7977 83.5065 64.8932 83.8696 65.2562 86.048L58.7209 87.1372C58.7209 87.1372 67.3889 88.9069 69.2271 97.6434C71.0654 106.38 86.3144 107.469 86.3144 107.469L98.2957 70.0729L99.3849 47.9256L91.0343 45.7471L87.7666 42.4795Z" fill="#ACB8CB"/>
<path d="M82.218 41.1016C86.7385 41.1016 90.4031 37.437 90.4031 32.9165C90.4031 28.396 86.7385 24.7314 82.218 24.7314C77.6975 24.7314 74.033 28.396 74.033 32.9165C74.033 37.437 77.6975 41.1016 82.218 41.1016Z" fill="#FFB6B6"/>
<path d="M77.9641 40.3005C77.9641 40.3005 70.7026 39.9375 71.4288 34.1283C69.6315 27.9422 71.2223 23.9257 76.8749 22.51C76.8749 22.51 78.3271 22.147 78.6902 22.147C83.4657 22.147 85.9516 23.5993 85.9516 23.5993C85.9516 23.5993 85.5886 22.1613 85.9516 22.5172C86.3147 22.8731 86.6778 23.5993 86.6778 23.5993C86.6778 23.5993 90.3085 25.4146 90.3085 29.0453C90.3085 32.676 90.3085 31.2238 90.3085 31.2238C90.3085 31.2238 89.5823 31.2238 88.8562 29.0453C88.1301 26.8669 83.4287 28.3192 83.4287 28.3192L83.7732 29.0453L82.684 28.6823L81.5948 29.7715L80.8686 29.4084C80.8686 29.4084 77.9641 29.4084 78.3271 29.4084C78.6902 29.4084 78.4372 31.8758 78.4372 31.8758L75.7856 34.8545L78.6902 40.3005H77.9641Z" fill="#2F2E41"/>
<path d="M39.2771 83.6347C37.21 84.7628 36.1162 86.7437 36.8342 88.0592C37.5521 89.3746 39.8098 89.5264 41.8769 88.3982C42.7817 87.9044 43.5 87.2472 43.9615 86.5539L52.6604 81.6637L50.2786 77.6304L41.956 82.8792C41.1232 82.8923 40.1819 83.1409 39.2771 83.6347Z" fill="#FFB6B6"/>
<path d="M68.6126 52.8146C68.6126 52.8146 65.2025 51.5162 64.0277 53.0791C62.8528 54.6419 55.0914 73.6053 55.0914 73.6053L43.7041 79.5524L46.9063 85.1287L61.5698 80.2468L71.2444 62.5531L68.6126 52.8146Z" fill="#ACB8CB"/>
<path d="M176.144 115.093V153.579C176.144 156.982 173.375 159.751 169.972 159.751H74.847C71.4436 159.751 68.6748 156.982 68.6748 153.579V115.093C68.6748 111.69 71.4436 108.921 74.847 108.921H169.972C173.375 108.921 176.144 111.69 176.144 115.093Z" fill="white"/>
<path d="M176.144 115.093V153.579C176.144 156.982 173.375 159.751 169.972 159.751H74.847C71.4436 159.751 68.6748 156.982 68.6748 153.579V115.093C68.6748 111.69 71.4436 108.921 74.847 108.921H169.972C173.375 108.921 176.144 111.69 176.144 115.093ZM169.972 159.025C172.979 159.025 175.418 156.586 175.418 153.579V134.176C175.418 120.629 164.436 109.647 150.889 109.647H74.847C71.8392 109.647 69.4009 112.085 69.4009 115.093V153.579C69.4009 156.586 71.8392 159.025 74.847 159.025H169.972Z" fill="#3D4B61"/>
<path d="M111.376 132.172H98.9514C98.6382 132.172 98.3833 132.427 98.3833 132.74C98.3833 133.054 98.6382 133.308 98.9514 133.308H111.376C111.689 133.308 111.944 133.054 111.944 132.74C111.944 132.427 111.689 132.172 111.376 132.172Z" fill="#2F5E8D"/>
<path d="M130.255 132.172H117.831C117.518 132.172 117.263 132.427 117.263 132.74C117.263 133.054 117.518 133.308 117.831 133.308H130.255C130.569 133.308 130.823 133.054 130.823 132.74C130.823 132.427 130.569 132.172 130.255 132.172Z" fill="#2F5E8D"/>
<path d="M111.376 138.383H98.9514C98.6382 138.383 98.3833 138.638 98.3833 138.951C98.3833 139.264 98.6382 139.519 98.9514 139.519H111.376C111.689 139.519 111.944 139.264 111.944 138.951C111.944 138.638 111.689 138.383 111.376 138.383Z" fill="#2F5E8D"/>
<path d="M130.255 138.383H117.831C117.518 138.383 117.263 138.638 117.263 138.951C117.263 139.264 117.518 139.519 117.831 139.519H130.255C130.569 139.519 130.823 139.264 130.823 138.951C130.823 138.638 130.569 138.383 130.255 138.383Z" fill="#2F5E8D"/>
<path d="M149.703 138.951C149.703 138.638 149.448 138.383 149.135 138.383H136.71C136.397 138.383 136.142 138.638 136.142 138.951C136.142 139.264 136.397 139.519 136.71 139.519H149.135C149.448 139.519 149.703 139.264 149.703 138.951Z" fill="#2F5E8D"/>
<path d="M104.114 127.213C104.427 127.213 104.682 126.958 104.682 126.645C104.682 126.332 104.427 126.077 104.114 126.077H91.6894C91.3762 126.077 91.1213 126.332 91.1213 126.645C91.1213 126.958 91.3762 127.213 91.6894 127.213H104.114Z" fill="#2F5E8D"/>
<path d="M140.704 126.982H153.129C153.442 126.982 153.697 126.727 153.697 126.414C153.697 126.101 153.442 125.846 153.129 125.846H140.704C140.391 125.846 140.136 126.101 140.136 126.414C140.136 126.727 140.391 126.982 140.704 126.982Z" fill="#2F5E8D"/>
<path d="M109.348 127.102H135.107C135.42 127.102 135.675 126.847 135.675 126.534C135.675 126.221 135.42 125.966 135.107 125.966H109.348C109.035 125.966 108.78 126.221 108.78 126.534C108.78 126.847 109.035 127.102 109.348 127.102Z" fill="#2F5E8D"/>
<path d="M119.484 144.025H107.059C106.746 144.025 106.491 144.28 106.491 144.593C106.491 144.907 106.746 145.161 107.059 145.161H119.484C119.797 145.161 120.052 144.907 120.052 144.593C120.052 144.28 119.797 144.025 119.484 144.025Z" fill="#2F5E8D"/>
<path d="M152.369 93.4767C152.369 81.4709 142.221 74.8665 130.63 71.7384C115.769 67.7279 104.886 75.8433 108.892 93.4767C109.8 97.4731 111.972 102.141 114.66 106.133H135.992C143.117 101.494 152.369 102.795 152.369 93.4767Z" fill="#2F5E8D"/>
<path d="M128.005 80.6241C129.288 80.6241 130.328 81.664 130.328 82.9466V87.5916H125.683V82.9466C125.683 81.664 126.723 80.6241 128.005 80.6241ZM131.489 87.5916V82.9466C131.489 81.0226 129.929 79.4629 128.005 79.4629C126.081 79.4629 124.522 81.0226 124.522 82.9466V87.5916C123.239 87.5916 122.199 88.6314 122.199 89.9141V95.7203C122.199 97.003 123.239 98.0428 124.522 98.0428H131.489C132.772 98.0428 133.812 97.003 133.812 95.7203V89.9141C133.812 88.6314 132.772 87.5916 131.489 87.5916ZM124.522 88.7529H131.489C132.131 88.7529 132.65 89.2728 132.65 89.9141V95.7203C132.65 96.3617 132.131 96.8816 131.489 96.8816H124.522C123.88 96.8816 123.36 96.3617 123.36 95.7203V89.9141C123.36 89.2728 123.88 88.7529 124.522 88.7529Z" fill="white"/>
<path d="M94.8163 107.666C94.5363 110.004 95.5155 112.044 97.0035 112.222C98.4914 112.401 99.9246 110.65 100.205 108.311C100.327 107.288 100.209 106.322 99.9115 105.544L100.974 95.621L96.3067 95.2217L95.7549 105.046C95.2825 105.732 94.9389 106.643 94.8163 107.666Z" fill="#FFB6B6"/>
<path d="M95.9364 48.4698C95.9364 48.4698 101.019 47.0175 102.109 49.196C103.198 51.3744 105.739 80.057 105.739 80.057L100.838 102.952L95.2103 101.478L98.1149 78.2417L94.1211 60.8142L95.9364 48.4698Z" fill="#ACB8CB"/>
<path d="M21.2399 118.121C32.9702 118.121 42.4796 108.612 42.4796 96.8818C42.4796 85.1514 32.9702 75.6421 21.2399 75.6421C9.50957 75.6421 0.000244141 85.1514 0.000244141 96.8818C0.000244141 108.612 9.50957 118.121 21.2399 118.121Z" fill="#2F5E8D"/>
<path d="M21.2398 87.373C22.7402 87.373 23.9565 88.5893 23.9565 90.0897V95.5231H18.5231V90.0897C18.5231 88.5893 19.7394 87.373 21.2398 87.373ZM25.3148 95.5231V90.0897C25.3148 87.8391 23.4903 86.0146 21.2398 86.0146C18.9892 86.0146 17.1647 87.8391 17.1647 90.0897V95.5231C15.6643 95.5231 14.448 96.7394 14.448 98.2398V105.032C14.448 106.532 15.6643 107.748 17.1647 107.748H25.3148C26.8152 107.748 28.0315 106.532 28.0315 105.032V98.2398C28.0315 96.7394 26.8152 95.5231 25.3148 95.5231ZM17.1647 96.8815H25.3148C26.065 96.8815 26.6732 97.4896 26.6732 98.2398V105.032C26.6732 105.782 26.065 106.39 25.3148 106.39H17.1647C16.4145 106.39 15.8064 105.782 15.8064 105.032V98.2398C15.8064 97.4896 16.4145 96.8815 17.1647 96.8815Z" fill="white"/>
</svg>
