<svg width="65" height="64" viewBox="0 0 65 64" fill="none" xmlns="http://www.w3.org/2000/svg">
<g id="solar:medal-ribbons-star-broken">
<g id="Group">
<path id="Vector" d="M15.0494 32L8.47873 38.8027C7.03873 40.2933 6.31873 41.04 6.06806 41.672C5.50006 43.1093 5.98806 44.7067 7.22273 45.464C7.76673 45.7947 8.74539 45.8987 10.7027 46.1067C11.8094 46.224 12.3614 46.28 12.8227 46.4587C13.3385 46.6586 13.8048 46.9682 14.1892 47.366C14.5736 47.7638 14.8671 48.2403 15.0494 48.7627C15.2201 49.2427 15.2761 49.8133 15.3907 50.96C15.5881 52.9867 15.6894 54 16.0094 54.56C16.7401 55.84 18.2841 56.3413 19.6707 55.7547C20.2841 55.4987 21.0041 54.7547 22.4441 53.2613L32.5001 42.848L42.5561 53.2613C43.9961 54.7547 44.7161 55.4987 45.3294 55.7547C46.7161 56.3413 48.2601 55.84 48.9907 54.56C49.3107 54 49.4094 52.9867 49.6094 50.96C49.7241 49.8133 49.7801 49.2427 49.9507 48.7627C50.3347 47.6907 51.1401 46.856 52.1774 46.4587C52.6387 46.28 53.1907 46.224 54.2974 46.1067C56.2547 45.8987 57.2334 45.7947 57.7774 45.464C59.0121 44.7067 59.5001 43.1093 58.9321 41.672C58.6814 41.04 57.9614 40.2933 56.5214 38.8027L49.9507 32M30.2227 18.728C31.2361 16.9067 31.7427 16 32.5001 16C33.2574 16 33.7641 16.9067 34.7774 18.728L35.0387 19.1973C35.3267 19.7147 35.4707 19.9707 35.6947 20.1413C35.9214 20.312 36.2014 20.376 36.7614 20.5013L37.2681 20.6187C39.2361 21.064 40.2201 21.2853 40.4547 22.0373C40.6894 22.792 40.0174 23.576 38.6761 25.144L38.3294 25.5493C37.9481 25.9947 37.7561 26.216 37.6707 26.4933C37.5854 26.7707 37.6147 27.0667 37.6707 27.6613L37.7241 28.2027C37.9267 30.296 38.0281 31.344 37.4174 31.808C36.8041 32.272 35.8814 31.848 34.0387 31L33.5641 30.7813C33.0387 30.5413 32.7774 30.4213 32.5001 30.4213C32.2227 30.4213 31.9614 30.5413 31.4361 30.7813L30.9614 31C29.1187 31.8507 28.1961 32.272 27.5827 31.808C26.9694 31.344 27.0734 30.296 27.2761 28.2027L27.3294 27.6613C27.3854 27.0667 27.4147 26.7707 27.3294 26.4933C27.2441 26.2187 27.0521 25.9947 26.6707 25.5493L26.3241 25.144C24.9827 23.576 24.3107 22.792 24.5454 22.0373C24.7801 21.2853 25.7641 21.064 27.7321 20.6187L28.2387 20.5013C28.7987 20.376 29.0787 20.3147 29.3054 20.1413C29.5294 19.9707 29.6734 19.7147 29.9614 19.1973L30.2227 18.728Z" stroke="#2F5E8D" stroke-width="3"/>
<path id="Vector_2" d="M15.1667 17.0587C13.5687 21.0503 13.3977 25.4711 14.6825 29.5742C15.9673 33.6773 18.6291 37.2111 22.2182 39.5785C25.8073 41.9459 30.1036 43.0017 34.3812 42.5675C38.6588 42.1333 42.6553 40.2358 45.6956 37.1956C48.7358 34.1553 50.6333 30.1588 51.0675 25.8812C51.5017 21.6036 50.4459 17.3073 48.0785 13.7182C45.7111 10.1291 42.1773 7.46726 38.0742 6.18247C33.9711 4.89769 29.5503 5.06872 25.5587 6.66668" stroke="#2F5E8D" stroke-width="3" stroke-linecap="round"/>
</g>
</g>
</svg>
