<svg width="127" height="35" viewBox="0 0 127 35" fill="none" xmlns="http://www.w3.org/2000/svg">
<g clip-path="url(#clip0_801_3811)">
<path d="M46.4367 34.7316L45 32.4745L43.5544 34.7316H42.3926L44.4413 31.7659L42.5788 29.0889H43.8116L45.0798 31.1273L46.3658 29.0889H47.4655L45.6385 31.7659L47.6517 34.7316H46.4367Z" fill="#3B5056"/>
<path d="M53.1058 34.7316V30.3749H53.0703L50.3032 34.7316H49.1592V29.0889H50.1436V33.4369H50.1791L52.9461 29.0889H54.0902V34.7316H53.1058Z" fill="#3B5056"/>
<path d="M60.857 34.7316V30.3049H60.8304L58.9591 32.4745H58.9502L57.0612 30.3049H57.0523V34.7316H56.0679V29.0889H57.2031L58.9502 31.206H58.9591L60.6973 29.0889H61.8325V34.7316H60.857Z" fill="#3B5056"/>
<path d="M67.0207 34.7316V32.3696C66.535 32.5486 66.0225 32.6461 65.5042 32.6583C64.0497 32.6583 63.4111 32.0721 63.4111 30.6111V29.0889H64.3956V30.3049C64.3956 31.2672 64.5286 31.8446 65.6993 31.8446C66.1521 31.8441 66.6007 31.7579 67.0207 31.5909V29.0889H68.0051V34.7316H67.0207Z" fill="#3B5056"/>
<path d="M73.8499 34.7316V30.3749H73.8144L71.0474 34.7316H69.9033V29.0889H70.8877V33.4369H70.9232L73.6903 29.0889H74.8343V34.7316H73.8499Z" fill="#3B5056"/>
<path d="M79.3304 34.8626C78.931 34.8756 78.5331 34.8088 78.1606 34.6661C77.7881 34.5234 77.4487 34.3079 77.1628 34.0325C76.877 33.757 76.6506 33.4274 76.4972 33.0634C76.3439 32.6994 76.2668 32.3085 76.2707 31.9144C76.2535 31.5148 76.322 31.1161 76.4716 30.7444C76.6213 30.3727 76.8488 30.0363 77.1392 29.7572C77.4297 29.4781 77.7765 29.2627 78.1572 29.1248C78.5378 28.987 78.9436 28.9299 79.3481 28.9574C79.7915 28.9733 80.2291 29.062 80.6429 29.2198V30.0947C80.2653 29.8762 79.8388 29.753 79.4013 29.736C79.1166 29.7291 78.8335 29.7811 78.5704 29.8887C78.3072 29.9963 78.0699 30.157 77.8735 30.3606C77.6772 30.5642 77.5263 30.806 77.4304 31.0706C77.3346 31.3352 77.296 31.6167 77.3172 31.8969C77.3076 32.1769 77.3554 32.4559 77.4578 32.7172C77.5601 32.9786 77.7149 33.2168 77.9128 33.4178C78.1107 33.6187 78.3477 33.7782 78.6096 33.8867C78.8714 33.9951 79.1528 34.0503 79.4368 34.049C79.8857 34.0284 80.322 33.896 80.705 33.6641V34.5389C80.2646 34.7255 79.7918 34.8265 79.3126 34.8364" fill="#3B5056"/>
<path d="M84.4303 29.885V34.7316H83.437V29.885H81.4858V29.0889H86.3725V29.885H84.4303Z" fill="#3B5056"/>
<path d="M87.4722 34.7316V29.0889H88.4566V31.6872H88.4832L90.8334 29.0889H92.0662L89.5829 31.7134L92.5717 34.7316H91.3123L88.4832 31.8096H88.4566V34.7316H87.4722Z" fill="#3B5056"/>
<path d="M96.9972 34.7314V33.9702C96.7802 34.2305 96.5101 34.4428 96.2046 34.5935C95.899 34.7442 95.5648 34.8299 95.2235 34.8451C93.9109 34.8451 93.1748 34.154 93.1748 33.0954C93.1748 31.5207 94.9485 31.2232 95.6847 31.2232C96.1105 31.2316 96.5324 31.3054 96.9351 31.4419V31.0133C96.9351 30.1821 96.4917 29.7622 95.5428 29.7622C94.9086 29.7681 94.299 30.0049 93.8311 30.4271V29.5523C94.3675 29.1635 95.0106 28.944 95.6758 28.9224C97.2633 28.9224 97.9107 29.6835 97.9107 31.2145V34.7139L96.9972 34.7314ZM96.8997 32.1068C96.618 31.99 96.3179 31.9219 96.0128 31.9056C95.5073 31.9056 94.2391 32.0193 94.2391 33.0691C94.2448 33.2036 94.2773 33.3356 94.3348 33.4577C94.3922 33.5797 94.4736 33.6894 94.5741 33.7804C94.6746 33.8714 94.7923 33.942 94.9204 33.9881C95.0486 34.0341 95.1847 34.0548 95.321 34.049C95.9389 34.0024 96.5173 33.7312 96.944 33.2879L96.8997 32.1068Z" fill="#3B5056"/>
<path d="M63.5441 10.1835H67.9784V22.4314H70.7011V10.1835H75.1355V9.04622H63.5441V10.1835ZM39.3946 8.74877C37.6666 8.71766 35.9928 9.34426 34.7208 10.4985C34.0207 11.1811 33.4736 12.001 33.1146 12.9051C32.7556 13.8092 32.5928 14.7775 32.6366 15.7476C32.6366 19.5882 35.04 22.7901 39.3768 22.7901C43.5097 22.7901 46.3122 19.9468 46.3122 15.7913C46.3122 11.6358 43.3944 8.79251 39.3946 8.79251M39.5187 21.5041C38.8935 21.4962 38.2829 21.3169 37.7551 20.9863C37.2272 20.6557 36.8031 20.1867 36.53 19.6319C35.9161 18.4159 35.6117 17.0707 35.6431 15.7126C35.5871 14.3522 35.8928 13.001 36.53 11.7932C36.797 11.269 37.2061 10.8281 37.7117 10.5192C38.2174 10.2104 38.7998 10.0457 39.3946 10.0435C39.9954 10.0446 40.5843 10.2083 41.0973 10.5168C41.6102 10.8253 42.0275 11.2669 42.3035 11.7932C42.9385 13.0394 43.2436 14.4238 43.1904 15.8176C43.1904 20.6467 40.4677 21.4866 39.4212 21.4866M58.1696 14.8377H51.9615V9.04622H49.3009V22.3964H51.9615V15.9925H58.1696V22.3964H60.8303V9.04622H58.1696V14.8377ZM115.302 9.08996V10.2273H119.736V22.4752H122.459V10.2273H126.893V9.08996H115.302ZM104.278 10.4635C103.536 11.1297 102.951 11.9478 102.563 12.8606C102.176 13.7734 101.995 14.7587 102.034 15.7476C102.022 16.6798 102.2 17.6049 102.558 18.4677C102.916 19.3305 103.447 20.1133 104.118 20.7692C104.804 21.4169 105.618 21.9171 106.51 22.2379C107.401 22.5587 108.351 22.6931 109.298 22.6326C110.687 22.6296 112.064 22.3869 113.369 21.9152V20.5505C112.245 21.0285 111.043 21.3041 109.821 21.3641C106.371 21.3641 105.076 18.6521 105.076 15.6513C105.023 14.8581 105.132 14.0625 105.395 13.3112C105.659 12.56 106.072 11.8684 106.611 11.2771C107.421 10.5163 108.499 10.096 109.617 10.1048C110.923 10.1227 112.209 10.4212 113.386 10.9796V9.54488C112.149 9.0845 110.841 8.83596 109.52 8.81001C107.671 8.72493 105.852 9.296 104.393 10.4197M81.7782 9.04622H77.805V22.3964H80.4656V17.4973H81.9644C86.4697 17.4973 87.2856 14.8727 87.2856 13.0618C87.2856 11.3646 86.585 9.06371 81.7782 9.06371M83.7204 15.5289C83.4012 15.8142 83.0271 16.0334 82.6203 16.1731C82.2135 16.3129 81.7823 16.3705 81.3525 16.3425H80.4656V10.2185H81.6806C82.046 10.1952 82.4123 10.2444 82.7581 10.3631C83.1039 10.4818 83.4221 10.6676 83.6938 10.9096C83.9791 11.2176 84.1978 11.5796 84.3366 11.9737C84.4753 12.3678 84.5312 12.7857 84.5009 13.2018C84.5562 14.0532 84.2767 14.893 83.7204 15.5463M92.9173 8.94123L87.9331 22.3964H89.5738L91.2677 17.6635H95.7021C95.7021 17.6635 97.4758 22.4227 97.4758 22.3964H100.465L95.0724 8.90624L92.9173 8.94123ZM91.6047 16.5787L93.3785 11.6708L95.2409 16.5787H91.6047ZM30.2953 21.3991C28.5215 19.2382 26.4196 16.3862 25.6215 15.2751C25.5673 15.2121 25.508 15.1536 25.4441 15.1002L30.4194 8.97623H28.3264L22.7923 15.8088C22.7923 15.8088 25.3288 19.4219 26.2955 20.7604C28.6723 24.0499 30.7919 25.7821 33.6476 25.7821C34.4712 25.8094 35.2812 25.5697 35.9535 25.0997C35.9535 25.0997 33.1865 24.8985 30.2953 21.4166M17.0454 6.69287C17.8436 8.07513 18.3668 11.0671 18.3668 14.1466V22.3964H21.2847V15.8788C21.2847 11.1634 19.5109 8.62629 17.0543 6.69287" fill="#3B5056"/>
<path d="M16.4161 13.9976C16.4161 13.9976 16.7443 7.40997 11.0949 3.43816C7.09511 0.568652 3.54762 0 1.67633 0C0.762848 0 0.292806 0.244958 0.0888254 0.734873C-0.115155 1.22479 0.0888254 1.94217 0.895878 2.68579C2.45677 4.19053 3.65405 6.18518 3.29043 8.56477C2.8736 11.3818 2.40356 15.0912 6.74036 16.0535C8.19271 16.3876 9.68523 16.5201 11.1747 16.4472C7.97311 17.6107 6.74036 19.7453 6.96208 21.5213C7.42325 25.0207 11.9374 25.3969 13.6491 22.8686C13.2336 23.0421 12.7877 23.1343 12.3365 23.1398C12.0025 23.1864 11.662 23.155 11.3425 23.0481C11.0229 22.9413 10.7333 22.7619 10.4969 22.5244C10.2605 22.287 10.0839 21.9981 9.98138 21.681C9.87883 21.364 9.85318 21.0276 9.90649 20.6989C10.0927 17.9169 14.4739 15.721 14.4739 15.721C14.4445 15.7255 14.4146 15.7255 14.3852 15.721C14.3852 15.721 9.00188 15.2749 7.47646 13.0265C5.95105 10.7781 7.52968 8.65226 7.00642 6.54387C6.6298 5.18879 5.859 3.97222 4.78924 3.04448C4.78924 3.04448 13.4451 5.56404 16.4161 13.9976Z" fill="#3B5056"/>
</g>
<defs>
<clipPath id="clip0_801_3811">
<rect width="127" height="34.8627" fill="white"/>
</clipPath>
</defs>
</svg>
