<svg width="265" height="254" viewBox="0 0 265 254" fill="none" xmlns="http://www.w3.org/2000/svg">
<g clip-path="url(#clip0_1388_45632)">
<path d="M238.251 245.944C239.253 246.006 239.807 244.762 239.049 244.036L238.974 243.736C238.984 243.712 238.993 243.688 239.004 243.664C240.017 241.249 243.45 241.265 244.455 243.685C245.346 245.832 246.482 247.983 246.761 250.254C246.886 251.256 246.83 252.277 246.608 253.26C248.697 248.697 249.796 243.714 249.796 238.702C249.796 237.443 249.727 236.184 249.586 234.928C249.47 233.901 249.311 232.88 249.104 231.868C247.986 226.399 245.565 221.19 242.072 216.84C240.394 215.922 238.993 214.488 238.148 212.768C237.844 212.148 237.606 211.481 237.493 210.801C237.684 210.826 238.214 207.916 238.069 207.738C238.336 207.334 238.812 207.133 239.103 206.739C240.549 204.778 242.542 205.12 243.582 207.785C245.804 208.906 245.826 210.766 244.462 212.555C243.595 213.693 243.476 215.233 242.714 216.452C242.793 216.552 242.874 216.649 242.952 216.749C244.388 218.591 245.63 220.57 246.677 222.65C246.381 220.339 246.818 217.554 247.563 215.759C248.411 213.714 250 211.992 251.399 210.224C253.08 208.1 256.526 209.027 256.823 211.719C256.825 211.745 256.828 211.771 256.831 211.797C256.623 211.914 256.42 212.039 256.221 212.171C255.086 212.921 255.478 214.68 256.822 214.887L256.853 214.892C256.778 215.64 256.649 216.383 256.461 217.112C258.257 224.055 254.381 226.583 248.847 226.697C248.725 226.759 248.606 226.822 248.484 226.882C249.044 228.46 249.492 230.079 249.824 231.721C250.122 233.171 250.329 234.637 250.445 236.109C250.589 237.966 250.576 239.833 250.419 241.687L250.429 241.621C250.827 239.579 251.935 237.672 253.545 236.35C255.944 234.38 259.332 233.654 261.919 232.071C263.165 231.309 264.761 232.294 264.543 233.738L264.533 233.807C264.148 233.963 263.772 234.145 263.408 234.349C263.201 234.466 262.997 234.59 262.798 234.722C261.664 235.472 262.056 237.231 263.4 237.438L263.43 237.443C263.452 237.446 263.471 237.449 263.493 237.453C262.832 239.022 261.911 240.478 260.759 241.734C259.636 247.794 254.815 248.369 249.658 246.605H249.655C249.091 249.06 248.268 251.459 247.209 253.746H238.47C238.439 253.649 238.411 253.549 238.383 253.451C239.191 253.502 240.005 253.455 240.801 253.307C240.152 252.512 239.504 251.71 238.856 250.914C238.84 250.899 238.827 250.883 238.815 250.867C238.486 250.46 238.154 250.056 237.825 249.649L237.825 249.649C237.804 248.399 237.955 247.153 238.251 245.944Z" fill="#F2F2F2"/>
<path d="M105.674 253.618H20.1197C9.68775 253.618 1.20068 245.131 1.20068 234.699V50.836C1.20068 40.4041 9.68775 31.917 20.1197 31.917H105.674C116.106 31.917 124.593 40.4041 124.593 50.836V234.699C124.593 245.131 116.106 253.618 105.674 253.618Z" fill="#3D4B61"/>
<path d="M124.593 99.5479C124.152 99.5479 123.793 99.9068 123.793 100.348V125.96C123.793 126.401 124.152 126.76 124.593 126.76C125.035 126.76 125.394 126.401 125.394 125.96V100.348C125.394 99.9068 125.035 99.5479 124.593 99.5479Z" fill="#3D4B61"/>
<path d="M122.792 50.8361V234.696C122.792 243.776 115.725 251.203 106.789 251.78H106.785C106.653 251.788 106.521 251.796 106.385 251.8C106.149 251.812 105.913 251.816 105.673 251.816C105.673 251.816 104.792 251.752 103.183 251.632C101.559 251.512 99.1936 251.331 96.2442 251.095C95.3598 251.027 94.4274 250.951 93.4429 250.871C91.482 250.711 89.3291 250.535 87.02 250.335C86.0996 250.259 85.1471 250.175 84.1747 250.091C79.2044 249.663 73.6379 249.162 67.7672 248.594C66.7748 248.502 65.7743 248.406 64.7659 248.306C64.5018 248.278 64.2336 248.254 63.9655 248.226C59.7796 247.814 3.00146 236.841 3.00146 234.696V50.8361C3.00146 41.3798 10.665 33.7163 20.1213 33.7163H30.3419C31.9747 33.7163 33.2873 34.9889 33.4273 36.6176C33.4393 36.7257 33.4513 36.8337 33.4713 36.9418C33.7675 38.5785 35.2682 39.719 36.9329 39.719H88.8609C90.5256 39.719 92.0263 38.5785 92.3224 36.9418C92.3424 36.8337 92.3544 36.7257 92.3664 36.6176C92.5065 34.9889 93.8191 33.7163 95.4518 33.7163H105.673C115.129 33.7163 122.792 41.3798 122.792 50.8361Z" fill="white"/>
<path d="M0.800363 80.3389C0.35895 80.3389 0 80.6978 0 81.1392V87.5421C0 87.9836 0.358954 88.3425 0.800363 88.3425C1.24177 88.3425 1.60073 87.9836 1.60073 87.5421V81.1392C1.60073 80.6978 1.24177 80.3389 0.800363 80.3389Z" fill="#3D4B61"/>
<path d="M0.800363 99.5479C0.35895 99.5479 0 99.9068 0 100.348V112.754C0 113.195 0.358954 113.554 0.800363 113.554C1.24177 113.554 1.60073 113.195 1.60073 112.754V100.348C1.60073 99.9068 1.24177 99.5479 0.800363 99.5479Z" fill="#3D4B61"/>
<path d="M0.800363 117.156C0.35895 117.156 0 117.515 0 117.956V130.362C0 130.803 0.358954 131.162 0.800363 131.162C1.24177 131.162 1.60073 130.803 1.60073 130.362V117.956C1.60073 117.515 1.24177 117.156 0.800363 117.156Z" fill="#3D4B61"/>
<path d="M30.0631 36.519H14.7569C14.6738 36.519 14.6064 36.5864 14.6064 36.6695V38.3695C14.6064 38.4526 14.6738 38.52 14.7569 38.52H30.0631C30.1462 38.52 30.2136 38.4526 30.2136 38.3695V36.6695C30.2136 36.5864 30.1462 36.519 30.0631 36.519Z" fill="#E6E6E6"/>
<path d="M97.9811 38.5203C98.8652 38.5203 99.5818 37.8036 99.5818 36.9196C99.5818 36.0355 98.8652 35.3188 97.9811 35.3188C97.097 35.3188 96.3804 36.0355 96.3804 36.9196C96.3804 37.8036 97.097 38.5203 97.9811 38.5203Z" fill="#E6E6E6"/>
<path d="M102.383 38.5203C103.267 38.5203 103.984 37.8036 103.984 36.9196C103.984 36.0355 103.267 35.3188 102.383 35.3188C101.499 35.3188 100.782 36.0355 100.782 36.9196C100.782 37.8036 101.499 38.5203 102.383 38.5203Z" fill="#E6E6E6"/>
<path d="M106.785 38.5203C107.669 38.5203 108.386 37.8036 108.386 36.9196C108.386 36.0355 107.669 35.3188 106.785 35.3188C105.901 35.3188 105.184 36.0355 105.184 36.9196C105.184 37.8036 105.901 38.5203 106.785 38.5203Z" fill="#E6E6E6"/>
<path d="M96.6423 144.761H28.7513C27.6817 144.761 26.8115 143.891 26.8115 142.821C26.8115 141.752 27.6817 140.881 28.7513 140.881H96.6423C97.7119 140.881 98.582 141.752 98.582 142.821C98.582 143.891 97.7119 144.761 96.6423 144.761Z" fill="#E6E6E6"/>
<path d="M62.9398 219.926C78.4735 219.926 91.066 207.333 91.066 191.8C91.066 176.266 78.4735 163.673 62.9398 163.673C47.406 163.673 34.8135 176.266 34.8135 191.8C34.8135 207.333 47.406 219.926 62.9398 219.926Z" fill="#2F5E8D"/>
<path d="M67.4102 182.616C65.0365 182.713 62.353 182.876 60.5986 184.698C59.0743 186.28 58.7403 188.628 60.286 190.318C61.8357 192.011 64.2453 192.241 66.0317 193.562C68.1293 195.114 67.8221 198.183 65.7922 199.654C63.3985 201.388 60.308 200.579 58.1197 198.929C57.5589 198.506 57.0146 199.453 57.569 199.871C59.5296 201.35 62.0879 202.172 64.512 201.465C66.6998 200.827 68.3957 199.043 68.5682 196.723C68.6505 195.615 68.3356 194.491 67.647 193.617C66.9201 192.694 65.8731 192.126 64.8147 191.664C62.9926 190.868 59.8553 189.839 60.3851 187.249C61.0272 184.11 64.8484 183.812 67.4102 183.707C68.1099 183.678 68.1135 182.587 67.4102 182.616Z" fill="white"/>
<path d="M63.007 181.131L62.9024 205.084C62.8993 205.786 63.9904 205.787 63.9935 205.084L64.0981 181.131C64.1011 180.429 63.01 180.428 63.007 181.131Z" fill="white"/>
<path d="M211.958 0H73.286C68.199 0 64.0625 4.13649 64.0625 9.22346V104.252C64.0625 109.339 68.199 113.475 73.286 113.475H211.958C217.045 113.475 221.182 109.339 221.182 104.252V9.22346C221.182 4.13649 217.045 0 211.958 0Z" fill="white"/>
<path d="M141.985 56.5027C150.555 56.5027 157.503 49.5551 157.503 40.9847C157.503 32.4144 150.555 25.4668 141.985 25.4668C133.414 25.4668 126.467 32.4144 126.467 40.9847C126.467 49.5551 133.414 56.5027 141.985 56.5027Z" fill="#2F5E8D"/>
<path d="M144.929 34.0595C143.008 34.1386 140.845 34.2604 139.392 35.6899C138.189 36.874 137.768 38.7174 138.874 40.1116C140.038 41.5795 141.975 41.858 143.495 42.7961C144.44 43.3791 145.066 44.2623 145.086 45.3974C145.105 46.4601 144.615 47.4529 143.795 48.119C141.783 49.753 139.04 49.0766 137.137 47.6475C136.763 47.3663 136.4 47.9975 136.77 48.2756C138.346 49.4592 140.375 50.1466 142.337 49.6374C144.142 49.1686 145.596 47.7485 145.791 45.8509C145.998 43.8509 144.684 42.4891 142.982 41.7078C141.425 40.9937 138.695 40.2329 138.953 38.0144C139.28 35.1937 142.733 34.8774 144.929 34.7869C145.395 34.7676 145.397 34.0402 144.929 34.0595Z" fill="white"/>
<path d="M141.591 32.7405L141.503 52.6996C141.501 53.1677 142.229 53.1683 142.231 52.6996L142.318 32.7405C142.32 32.2724 141.593 32.2718 141.591 32.7405Z" fill="white"/>
<path d="M211.958 0H73.286C68.199 0 64.0625 4.13649 64.0625 9.22346V104.252C64.0625 109.339 68.199 113.475 73.286 113.475H211.958C217.045 113.475 221.182 109.339 221.182 104.252V9.22346C221.182 4.13649 217.045 0 211.958 0ZM220.212 104.252C220.212 108.805 216.512 112.505 211.958 112.505H73.286C68.7324 112.505 65.0324 108.805 65.0324 104.252V9.22346C65.0324 4.66994 68.7324 0.969872 73.286 0.969872H211.958C216.512 0.969872 220.212 4.66993 220.212 9.22346V104.252Z" fill="#3D4B61"/>
<path d="M126.634 9.3833H113.027C112.343 9.3833 111.785 9.94099 111.785 10.6247C111.785 11.3133 112.343 11.871 113.027 11.871H126.634C127.318 11.871 127.875 11.3133 127.875 10.6247C127.875 9.94099 127.318 9.3833 126.634 9.3833Z" fill="#E6E6E6"/>
<path d="M149.426 9.3833H135.819C135.135 9.3833 134.577 9.94099 134.577 10.6247C134.577 11.3133 135.135 11.871 135.819 11.871H149.426C150.11 11.871 150.667 11.3133 150.667 10.6247C150.667 9.94099 150.11 9.3833 149.426 9.3833Z" fill="#E6E6E6"/>
<path d="M172.218 9.3833H158.611C157.927 9.3833 157.369 9.94099 157.369 10.6247C157.369 11.3133 157.927 11.871 158.611 11.871H172.218C172.902 11.871 173.459 11.3133 173.459 10.6247C173.459 9.94099 172.902 9.3833 172.218 9.3833Z" fill="#E6E6E6"/>
<path d="M194.661 65.2314H90.584C86.2536 65.2314 82.7329 68.7521 82.7329 73.0826V80.1723C82.7329 84.5028 86.2536 88.0234 90.584 88.0234H194.661C198.991 88.0234 202.512 84.5028 202.512 80.1723V73.0826C202.512 68.7521 198.991 65.2314 194.661 65.2314Z" fill="#2F5E8D"/>
<path d="M35.4871 102.56L31.4961 100.669C33.133 102.954 34.5435 106.521 35.2987 109.36C36.5772 106.716 38.6383 103.48 40.6784 101.547L36.4604 102.632C39.0595 89.894 48.8355 80.7492 60.0304 80.7492V79.7793C48.3371 79.7793 38.1409 89.3071 35.4871 102.56Z" fill="#3D4B61"/>
<path d="M53.8561 121.969H28.6395C27.5699 121.969 26.6997 121.099 26.6997 120.029C26.6997 118.96 27.5699 118.089 28.6395 118.089H53.8561C54.9257 118.089 55.7959 118.96 55.7959 120.029C55.7959 121.099 54.9257 121.969 53.8561 121.969Z" fill="#E6E6E6"/>
<path d="M221.606 115.651L221.351 135.455L216.424 153.11L212.484 151.64L214.233 135.458L214.003 113.56L221.606 115.651Z" fill="#FFB6B6"/>
<path d="M216.407 155.957C216.869 153.418 216.022 151.138 214.514 150.864C213.007 150.589 211.41 152.425 210.948 154.963C210.486 157.502 211.333 159.782 212.84 160.056C214.348 160.331 215.944 158.495 216.407 155.957Z" fill="#FFB6B6"/>
<path d="M215.626 92.0703C215.626 92.0703 224.067 92.1865 224.06 96.6707C224.056 99.2024 223.513 122.19 221.999 136.154C220.832 146.923 218.605 149.732 218.605 149.732L213.271 137.609L215.626 92.0703Z" fill="#ACB8CB"/>
<path d="M215.409 132.532H186.901C189.29 127.2 190.759 122.122 188.463 118.083L215.409 116.521C214.063 121.974 213.898 127.325 215.409 132.532Z" fill="#FFB6B6"/>
<path d="M211.894 85.2791L200.569 84.498L195.882 90.3559L193.507 90.7879C189.945 91.4354 187.41 94.6134 187.569 98.2296L188.493 119.233L215.562 121.207L222.048 93.8559L214.237 90.7464L211.894 85.2791Z" fill="#ACB8CB"/>
<path d="M142.829 91.6146C143.632 92.3374 144.206 93.1818 144.509 94.0008L152.598 100.403L149.439 104.163L141.573 97.2638C140.727 97.0489 139.827 96.5675 139.023 95.8446C137.188 94.1933 136.552 91.9077 137.602 90.7396C138.653 89.5715 140.993 89.9633 142.829 91.6146Z" fill="#FFB6B6"/>
<path d="M200.021 97.005L169.025 117.935L146.807 102.473L150.143 96.4305L167.63 106.593L183.756 94.2106C189.499 88.8166 196.696 89.8622 200.021 97.005Z" fill="#ACB8CB"/>
<path d="M205.56 82.7439C210.2 82.7439 213.962 78.9822 213.962 74.3419C213.962 69.7016 210.2 65.9399 205.56 65.9399C200.919 65.9399 197.158 69.7016 197.158 74.3419C197.158 78.9822 200.919 82.7439 205.56 82.7439Z" fill="#FFB6B6"/>
<path d="M216.98 72.2777V73.9071L207.505 71.24L200.4 72.7287C200.318 71.6473 199.998 70.5853 199.464 69.6445C199.836 71.1534 199.877 72.3208 199.484 72.9227L198.528 73.1215C198.373 72.6996 198.073 72.3311 197.68 72.108C197.641 72.0838 197.593 72.0643 197.549 72.0789C197.481 72.1031 197.476 72.1904 197.476 72.2583C197.486 72.6172 197.496 72.976 197.51 73.3349L194.765 73.9071V72.2777C192.132 66.3528 199.072 61.2259 205.875 61.1727C208.945 61.1487 211.719 62.4141 213.731 64.4217C215.739 66.4342 216.98 69.2081 216.98 72.2777Z" fill="#3D4B61"/>
<path d="M222.311 91.3829L221.595 91.3237C221.646 91.0897 221.697 90.8586 221.744 90.6246C222.14 88.6609 221.267 86.161 221.203 84.2742C220.866 86.2676 221.442 88.7201 220.846 90.6128C220.78 90.8231 218.191 92.1802 218.12 92.3876C215.254 91.3396 212.27 87.9911 208.891 89.9469C206.892 91.1036 204.612 90.5966 202.343 90.067C201.781 89.9359 201.703 87.1623 201.147 87.0533C200.152 86.8581 198.69 89.3794 197.752 89.4779L201.632 74.4449C201.632 66.267 200.874 57.6868 211.234 60.5785C213.839 61.3058 216.418 61.8759 218.341 64.0262C220.264 66.1796 221.633 69.1889 222.118 72.6159C222.41 74.6834 224.236 81.7032 222.311 91.3829Z" fill="#3D4B61"/>
<path d="M215.621 242.556L210.997 242.665L208.419 221.888L215.244 221.727L215.621 242.556Z" fill="#FFB7B7"/>
<path d="M199.755 252.204C199.755 252.985 200.309 253.618 200.993 253.618H210.173C210.173 253.618 211.076 249.987 214.759 248.425L215.013 253.618H219.749L219.175 245.267C219.175 245.267 220.442 240.799 217.811 238.515C215.18 236.231 217.311 236.549 217.311 236.549L216.276 231.38L209.12 232.221L209.068 240.335L205.595 248.389L200.502 250.905C200.048 251.129 199.755 251.64 199.755 252.204Z" fill="#3D4B61"/>
<path d="M201.552 239.17L197.106 240.449L189.34 221.006L195.901 219.118L201.552 239.17Z" fill="#FFB7B7"/>
<path d="M188.653 252.528C188.851 253.284 189.548 253.756 190.209 253.582L199.089 251.253C199.089 251.253 199.041 247.511 202.207 245.065L203.771 250.024L208.351 248.823L205.677 240.89C205.677 240.89 205.768 236.247 202.644 234.705C199.52 233.164 201.662 232.931 201.662 232.931L199.349 228.193L192.641 230.823L194.649 238.685L193.334 247.356L189.046 251.083C188.664 251.414 188.51 251.982 188.653 252.528Z" fill="#3D4B61"/>
<path d="M212.786 131.305L215.695 132.275C220.244 140.676 222.173 151.834 221.918 165.288L216.749 225.717H208.294L202.105 158.397L191.195 183.664L199.178 225.717L191.195 226.531L175.115 182.803L186.313 131.981L212.786 131.305Z" fill="#3D4B61"/>
</g>
<defs>
<clipPath id="clip0_1388_45632">
<rect width="264.563" height="253.864" fill="white"/>
</clipPath>
</defs>
</svg>
