<svg width="49" height="48" viewBox="0 0 49 48" fill="none" xmlns="http://www.w3.org/2000/svg">
<path d="M19.8333 18.6666L23.8333 10.6666L24.5 9.33325L29.1667 18.6666L39.8333 19.3333L32.5 27.3333L33.1667 37.3333L24.5 33.3333L15.1667 37.9999L16.5 26.6666L9.83334 19.9999L19.8333 18.6666Z" fill="#EFF5FB"/>
<path d="M39.8 18.08L30.12 17.24L26.34 8.34C25.66 6.72 23.34 6.72 22.66 8.34L18.88 17.26L9.21999 18.08C7.45999 18.22 6.73999 20.42 8.07999 21.58L15.42 27.94L13.22 37.38C12.82 39.1 14.68 40.46 16.2 39.54L24.5 34.54L32.8 39.56C34.32 40.48 36.18 39.12 35.78 37.4L33.58 27.94L40.92 21.58C42.26 20.42 41.56 18.22 39.8 18.08ZM24.5 30.8L16.98 35.34L18.98 26.78L12.34 21.02L21.1 20.26L24.5 12.2L27.92 20.28L36.68 21.04L30.04 26.8L32.04 35.36L24.5 30.8Z" fill="#CFE2F4"/>
</svg>
