<svg width="30" height="30" viewBox="0 0 30 30" fill="none" xmlns="http://www.w3.org/2000/svg">
<g id="fluent:money-hand-20-regular">
<path id="Vector" d="M6.75 3C6.15326 3 5.58097 3.23705 5.15901 3.65901C4.73705 4.08097 4.5 4.65326 4.5 5.25V24.75C4.5 25.3467 4.73705 25.919 5.15901 26.341C5.58097 26.7629 6.15326 27 6.75 27H17.25C17.8467 27 18.419 26.7629 18.841 26.341C19.2629 25.919 19.5 25.3467 19.5 24.75V22.5C19.5 22.3011 19.421 22.1103 19.2803 21.9697C19.1397 21.829 18.9489 21.75 18.75 21.75C18.1305 21.75 17.7345 21.597 17.466 21.396C17.1915 21.1905 16.983 20.883 16.83 20.4615C16.509 19.5795 16.5 18.411 16.5 17.25C16.5 17.1513 16.4805 17.0536 16.4427 16.9625C16.4048 16.8714 16.3494 16.7887 16.2795 16.719L15.8505 16.2885L14.031 14.469C13.3305 13.7685 13.125 13.299 13.086 13.0365C13.056 12.8265 13.119 12.6855 13.269 12.5415C13.59 12.234 13.8195 12.0255 14.079 11.9625C14.2335 11.9235 14.586 11.8965 15.219 12.5295L19.719 17.0295C19.8596 17.1703 20.0504 17.2495 20.2495 17.2497C20.348 17.2497 20.4456 17.2304 20.5367 17.1927C20.6278 17.1551 20.7105 17.0999 20.7803 17.0303C20.85 16.9606 20.9053 16.8779 20.9431 16.7869C20.9809 16.6959 21.0003 16.5983 21.0004 16.4998C21.0005 16.4012 20.9811 16.3036 20.9435 16.2126C20.9059 16.1215 20.8506 16.0387 20.781 15.969L19.5 14.6895V10.0605L23.34 13.9005C23.5492 14.1094 23.7151 14.3575 23.8284 14.6306C23.9416 14.9037 23.9999 15.1964 24 15.492V26.25C24 26.4489 24.079 26.6397 24.2197 26.7803C24.3603 26.921 24.5511 27 24.75 27C24.9489 27 25.1397 26.921 25.2803 26.7803C25.421 26.6397 25.5 26.4489 25.5 26.25V15.492C25.4998 14.4979 25.1049 13.5445 24.402 12.8415L19.5 7.9395V5.25C19.5 4.65326 19.2629 4.08097 18.841 3.65901C18.419 3.23705 17.8467 3 17.25 3H6.75ZM18 8.25V13.1895L16.281 11.469C15.4125 10.602 14.55 10.3035 13.7235 10.5045C13.5611 10.5446 13.4037 10.6024 13.254 10.677C12.5835 10.4828 11.877 10.4471 11.1903 10.5729C10.5037 10.6987 9.85571 10.9825 9.2976 11.4018C8.73949 11.8211 8.28654 12.3645 7.97456 12.989C7.66258 13.6134 7.50012 14.3019 7.5 15C7.49994 15.8699 7.75202 16.7212 8.22574 17.4508C8.69947 18.1804 9.37451 18.7571 10.1692 19.111C10.9638 19.465 11.8441 19.581 12.7033 19.445C13.5625 19.3091 14.3639 18.927 15.0105 18.345C15.036 19.212 15.123 20.16 15.42 20.9745C15.642 21.585 15.996 22.1685 16.566 22.5945L16.575 22.6035C16.1182 22.7471 15.7192 23.0328 15.436 23.4188C15.1527 23.8048 15 24.2712 15 24.75V25.5H9V24.75C9 24.1533 8.76295 23.581 8.34099 23.159C7.91903 22.7371 7.34674 22.5 6.75 22.5H6V7.5H6.75C7.34674 7.5 7.91903 7.26295 8.34099 6.84099C8.76295 6.41903 9 5.84674 9 5.25V4.5H15V5.25C15 5.84674 15.2371 6.41903 15.659 6.84099C16.081 7.26295 16.6533 7.5 17.25 7.5H18V8.25ZM18 24.75V24.7635C17.9965 24.9601 17.9159 25.1474 17.7756 25.2851C17.6353 25.4229 17.4466 25.5 17.25 25.5H16.5V24.75C16.5 24.5511 16.579 24.3603 16.7197 24.2197C16.8603 24.079 17.0511 24 17.25 24H18V24.75ZM9 15C9.00001 14.2371 9.29069 13.5028 9.81289 12.9466C10.3351 12.3904 11.0496 12.0541 11.811 12.006C11.625 12.351 11.5305 12.771 11.6025 13.2555C11.709 13.9785 12.1695 14.73 12.969 15.5295L14.3295 16.89C13.9389 17.3713 13.4089 17.7198 12.8122 17.8876C12.2155 18.0554 11.5815 18.0343 10.9973 17.8271C10.4131 17.6199 9.90743 17.2369 9.54978 16.7307C9.19214 16.2244 9.00007 15.6198 9 15ZM7.5 4.5V5.25C7.5 5.44891 7.42098 5.63968 7.28033 5.78033C7.13968 5.92098 6.94891 6 6.75 6H6V5.25C6 5.05109 6.07902 4.86032 6.21967 4.71967C6.36032 4.57902 6.55109 4.5 6.75 4.5H7.5ZM6 24H6.75C6.94891 24 7.13968 24.079 7.28033 24.2197C7.42098 24.3603 7.5 24.5511 7.5 24.75V25.5H6.75C6.55109 25.5 6.36032 25.421 6.21967 25.2803C6.07902 25.1397 6 24.9489 6 24.75V24ZM18 6H17.25C17.0511 6 16.8603 5.92098 16.7197 5.78033C16.579 5.63968 16.5 5.44891 16.5 5.25V4.5H17.25C17.4489 4.5 17.6397 4.57902 17.7803 4.71967C17.921 4.86032 18 5.05109 18 5.25V6Z" fill="#3D4B61"/>
</g>
</svg>
